<svg width="512" height="512" viewBox="0 0 512 512" fill="none" xmlns="http://www.w3.org/2000/svg">
<g filter="url(#filter0_dddiii_3_588)">
<g clip-path="url(#clip0_3_588)">
<rect x="43" y="43" width="426" height="426" rx="112" fill="black" fill-opacity="0.55" shape-rendering="crispEdges"/>
<g style="mix-blend-mode:lighten" filter="url(#filter1_f_3_588)">
<circle cx="387.901" cy="104.365" r="166.139" fill="#F88241" fill-opacity="0.2"/>
</g>
<g style="mix-blend-mode:lighten" filter="url(#filter2_f_3_588)">
<circle cx="91.6896" cy="90.4515" r="186.797" fill="#FF5823" fill-opacity="0.15"/>
</g>
<g style="mix-blend-mode:lighten" filter="url(#filter3_f_3_588)">
<circle cx="118.811" cy="351.951" r="137.049" fill="#F1206B" fill-opacity="0.03"/>
</g>
<g style="mix-blend-mode:lighten" filter="url(#filter4_f_3_588)">
<circle cx="403.664" cy="316.187" r="150.376" fill="#3B1BFF" fill-opacity="0.05"/>
</g>
<g style="mix-blend-mode:overlay" filter="url(#filter5_f_3_588)">
<circle cx="265.5" cy="514.5" r="264.5" fill="white" fill-opacity="0.05"/>
</g>
</g>
<rect x="45" y="45" width="422" height="422" rx="110" stroke="url(#paint0_radial_3_588)" stroke-opacity="0.4" stroke-width="4" style="mix-blend-mode:lighten" shape-rendering="crispEdges"/>
</g>
<g filter="url(#filter6_d_3_588)">
<path d="M218.213 341.983L218.207 341.976C208.932 331.692 202.18 319.993 198.211 307.296C196.925 303.205 195.919 298.334 195.376 294.25L152.387 329.445L152.368 329.46L152.349 329.475C140.976 338.656 123.305 340.268 113.966 328.301C113.966 328.301 113.965 328.3 113.965 328.3L119.484 323.993C113.532 316.372 116.56 304.33 126.027 297.091L218.213 341.983ZM218.213 341.983C227.767 352.548 239.507 360.986 252.977 366.939C267.156 373.227 282.502 376.413 298.387 376.376C314.267 376.339 329.572 373.115 343.78 366.792L343.787 366.79L343.793 366.787C357.249 360.765 368.983 352.297 378.534 341.698L373.345 337.018L378.536 341.695C387.824 331.396 394.529 319.662 398.526 306.995M218.213 341.983L240.103 155.404M240.103 155.404C240.083 154.763 240.101 154.115 240.16 153.463C240.649 148.067 243.8 143.389 248.345 140.209C256.863 134.235 269.673 133.965 278.038 140.18C278.361 140.403 278.593 140.6 278.722 140.714C278.728 140.718 278.733 140.723 278.739 140.728L365.696 207.49L365.714 207.504L365.732 207.518C374.981 214.716 382.826 223.297 388.923 233.121C395.583 243.845 399.93 255.623 401.705 268.163L401.705 268.166C402.613 274.595 402.8 281.053 402.311 287.494L402.31 287.508L402.309 287.521C401.781 294.114 400.536 300.656 398.526 306.995M240.103 155.404H231.2L246.482 167.835L267.592 185.005L176.282 185.091C176.281 185.091 176.28 185.091 176.279 185.091C170.214 185.091 164.352 187.069 159.683 190.284C155.05 193.475 151.114 198.236 149.761 204.131L240.103 155.404ZM398.526 306.995C398.525 306.998 398.524 307.001 398.523 307.004L391.851 304.887L398.526 306.993C398.526 306.994 398.526 306.994 398.526 306.995ZM206.044 226.867L122.198 291.221L206.044 226.867ZM206.044 226.867L170.553 226.933L163.54 226.946V225.936C160 224.926 156.825 223.129 154.329 220.577C150.169 216.324 148.331 210.36 149.761 204.134L206.044 226.867ZM254.943 269.726L254.942 269.737C254.3 281.507 259.076 292.286 267.044 300.13L267.063 300.148L267.082 300.167C275.288 308.124 286.819 313.035 299.588 313.035C312.347 313.035 323.922 308.131 332.106 300.155C340.18 292.29 344.911 281.495 344.269 269.737L344.268 269.718L344.267 269.7C343.585 258.31 337.996 248.38 329.834 241.461L329.827 241.455C321.8 234.669 311.147 230.612 299.588 230.612C288.068 230.612 277.379 234.667 269.35 241.455L269.343 241.461C261.182 248.379 255.584 258.317 254.943 269.726ZM246.353 270L246.354 269.99L246.354 269.981C246.863 263.995 248.628 258.175 251.543 252.97L251.553 252.953L251.563 252.935C254.419 247.762 258.353 243.055 263.287 239.04L263.294 239.034C272.954 231.153 285.33 226.829 298.37 226.829C311.463 226.829 323.8 231.094 333.447 238.931C338.381 242.972 342.33 247.647 345.128 252.768L345.134 252.779L345.14 252.79C348.056 258.081 349.845 263.886 350.351 269.842L350.352 269.851L350.353 269.861C350.89 275.98 350.084 282.153 347.968 287.933L347.964 287.944C345.846 293.763 342.359 299.353 337.539 304.264C327.642 314.344 313.702 320.164 298.391 320.195C283.088 320.226 269.124 314.44 259.235 304.402C254.401 299.476 250.889 293.919 248.743 288.053C246.646 282.234 245.818 276.089 246.353 270Z" stroke="url(#paint1_linear_3_588)" stroke-opacity="0.4" stroke-width="14" style="mix-blend-mode:overlay" shape-rendering="crispEdges"/>
</g>
<path d="M261.932 270.119C262.454 260.826 267.013 252.613 273.869 246.801C280.621 241.093 289.704 237.613 299.588 237.613C309.507 237.613 318.556 241.093 325.308 246.801C332.164 252.613 336.723 260.826 337.28 270.119C337.802 279.689 333.974 288.564 327.222 295.142C320.366 301.824 310.551 306.035 299.588 306.035C288.625 306.035 278.846 301.824 271.955 295.142C265.273 288.564 261.41 279.689 261.932 270.119Z" fill="url(#paint2_radial_3_588)"/>
<path d="M201.932 288.947C202.001 292.567 203.15 299.667 204.89 305.2C208.544 316.894 214.774 327.718 223.405 337.288C232.28 347.103 243.208 354.968 255.806 360.537C269.066 366.418 283.44 369.411 298.37 369.376C313.301 369.342 327.639 366.314 340.934 360.397C353.533 354.759 364.461 346.859 373.336 337.01C381.967 327.439 388.162 316.581 391.851 304.887C393.695 299.075 394.844 293.054 395.331 286.964C395.783 281.012 395.609 275.061 394.774 269.144C393.138 257.59 389.136 246.731 382.976 236.813C377.338 227.729 370.064 219.759 361.433 213.042L274.217 146.082C274.147 146.012 274.078 145.943 274.008 145.908C268.266 141.523 258.66 141.523 252.361 145.943C245.992 150.397 245.261 157.741 250.934 162.404H250.899L287.268 191.987L176.421 192.091H176.282C167.129 192.091 158.324 198.112 156.584 205.699C154.809 213.425 161.038 219.864 170.54 219.899V219.933L226.711 219.829L126.41 296.813C126.27 296.917 126.166 296.987 126.027 297.091C116.56 304.33 113.532 316.372 119.484 323.994C125.539 331.755 138.382 331.755 147.952 324.028L202.663 279.237C202.663 279.272 201.862 285.328 201.932 288.947ZM342.535 309.168C331.259 320.653 315.493 327.161 298.405 327.196C281.317 327.23 265.516 320.757 254.24 309.307C248.741 303.704 244.67 297.3 242.164 290.444C239.728 283.692 238.753 276.523 239.379 269.388C239.971 262.428 242.024 255.641 245.435 249.551C248.741 243.564 253.266 238.17 258.869 233.611C269.832 224.667 283.788 219.829 298.37 219.829C312.987 219.829 326.909 224.597 337.871 233.506C343.44 238.066 347.999 243.425 351.271 249.411C354.646 255.537 356.735 262.288 357.326 269.249C357.953 276.383 357.013 283.588 354.542 290.339C352.071 297.126 348.034 303.564 342.535 309.168Z" fill="url(#paint3_radial_3_588)"/>
<defs>
<filter id="filter0_dddiii_3_588" x="29" y="35" width="454" height="456" filterUnits="userSpaceOnUse" color-interpolation-filters="sRGB">
<feFlood flood-opacity="0" result="BackgroundImageFix"/>
<feColorMatrix in="SourceAlpha" type="matrix" values="0 0 0 0 0 0 0 0 0 0 0 0 0 0 0 0 0 0 127 0" result="hardAlpha"/>
<feOffset dy="8"/>
<feGaussianBlur stdDeviation="7"/>
<feComposite in2="hardAlpha" operator="out"/>
<feColorMatrix type="matrix" values="0 0 0 0 0 0 0 0 0 0 0 0 0 0 0 0 0 0 0.15 0"/>
<feBlend mode="normal" in2="BackgroundImageFix" result="effect1_dropShadow_3_588"/>
<feColorMatrix in="SourceAlpha" type="matrix" values="0 0 0 0 0 0 0 0 0 0 0 0 0 0 0 0 0 0 127 0" result="hardAlpha"/>
<feOffset dy="4"/>
<feGaussianBlur stdDeviation="4"/>
<feComposite in2="hardAlpha" operator="out"/>
<feColorMatrix type="matrix" values="0 0 0 0 0 0 0 0 0 0 0 0 0 0 0 0 0 0 0.1 0"/>
<feBlend mode="normal" in2="effect1_dropShadow_3_588" result="effect2_dropShadow_3_588"/>
<feColorMatrix in="SourceAlpha" type="matrix" values="0 0 0 0 0 0 0 0 0 0 0 0 0 0 0 0 0 0 127 0" result="hardAlpha"/>
<feOffset dy="1"/>
<feGaussianBlur stdDeviation="1"/>
<feComposite in2="hardAlpha" operator="out"/>
<feColorMatrix type="matrix" values="0 0 0 0 0 0 0 0 0 0 0 0 0 0 0 0 0 0 0.1 0"/>
<feBlend mode="normal" in2="effect2_dropShadow_3_588" result="effect3_dropShadow_3_588"/>
<feBlend mode="normal" in="SourceGraphic" in2="effect3_dropShadow_3_588" result="shape"/>
<feColorMatrix in="SourceAlpha" type="matrix" values="0 0 0 0 0 0 0 0 0 0 0 0 0 0 0 0 0 0 127 0" result="hardAlpha"/>
<feOffset dy="-6"/>
<feGaussianBlur stdDeviation="2"/>
<feComposite in2="hardAlpha" operator="arithmetic" k2="-1" k3="1"/>
<feColorMatrix type="matrix" values="0 0 0 0 0 0 0 0 0 0 0 0 0 0 0 0 0 0 0.08 0"/>
<feBlend mode="multiply" in2="shape" result="effect4_innerShadow_3_588"/>
<feColorMatrix in="SourceAlpha" type="matrix" values="0 0 0 0 0 0 0 0 0 0 0 0 0 0 0 0 0 0 127 0" result="hardAlpha"/>
<feOffset dy="-8"/>
<feGaussianBlur stdDeviation="9"/>
<feComposite in2="hardAlpha" operator="arithmetic" k2="-1" k3="1"/>
<feColorMatrix type="matrix" values="0 0 0 0 0 0 0 0 0 0 0 0 0 0 0 0 0 0 0.2 0"/>
<feBlend mode="multiply" in2="effect4_innerShadow_3_588" result="effect5_innerShadow_3_588"/>
<feColorMatrix in="SourceAlpha" type="matrix" values="0 0 0 0 0 0 0 0 0 0 0 0 0 0 0 0 0 0 127 0" result="hardAlpha"/>
<feMorphology radius="2" operator="erode" in="SourceAlpha" result="effect6_innerShadow_3_588"/>
<feOffset dy="4"/>
<feGaussianBlur stdDeviation="1.5"/>
<feComposite in2="hardAlpha" operator="arithmetic" k2="-1" k3="1"/>
<feColorMatrix type="matrix" values="0 0 0 0 1 0 0 0 0 1 0 0 0 0 1 0 0 0 0.4 0"/>
<feBlend mode="overlay" in2="effect5_innerShadow_3_588" result="effect6_innerShadow_3_588"/>
</filter>
<filter id="filter1_f_3_588" x="55.2454" y="-228.291" width="665.312" height="665.312" filterUnits="userSpaceOnUse" color-interpolation-filters="sRGB">
<feFlood flood-opacity="0" result="BackgroundImageFix"/>
<feBlend mode="normal" in="SourceGraphic" in2="BackgroundImageFix" result="shape"/>
<feGaussianBlur stdDeviation="83.2586" result="effect1_foregroundBlur_3_588"/>
</filter>
<filter id="filter2_f_3_588" x="-315.108" y="-316.346" width="813.594" height="813.594" filterUnits="userSpaceOnUse" color-interpolation-filters="sRGB">
<feFlood flood-opacity="0" result="BackgroundImageFix"/>
<feBlend mode="normal" in="SourceGraphic" in2="BackgroundImageFix" result="shape"/>
<feGaussianBlur stdDeviation="110" result="effect1_foregroundBlur_3_588"/>
</filter>
<filter id="filter3_f_3_588" x="-184.755" y="48.3855" width="607.132" height="607.132" filterUnits="userSpaceOnUse" color-interpolation-filters="sRGB">
<feFlood flood-opacity="0" result="BackgroundImageFix"/>
<feBlend mode="normal" in="SourceGraphic" in2="BackgroundImageFix" result="shape"/>
<feGaussianBlur stdDeviation="83.2586" result="effect1_foregroundBlur_3_588"/>
</filter>
<filter id="filter4_f_3_588" x="86.7714" y="-0.705856" width="633.786" height="633.786" filterUnits="userSpaceOnUse" color-interpolation-filters="sRGB">
<feFlood flood-opacity="0" result="BackgroundImageFix"/>
<feBlend mode="normal" in="SourceGraphic" in2="BackgroundImageFix" result="shape"/>
<feGaussianBlur stdDeviation="83.2586" result="effect1_foregroundBlur_3_588"/>
</filter>
<filter id="filter5_f_3_588" x="-231" y="18" width="993" height="993" filterUnits="userSpaceOnUse" color-interpolation-filters="sRGB">
<feFlood flood-opacity="0" result="BackgroundImageFix"/>
<feBlend mode="normal" in="SourceGraphic" in2="BackgroundImageFix" result="shape"/>
<feGaussianBlur stdDeviation="116" result="effect1_foregroundBlur_3_588"/>
</filter>
<filter id="filter6_d_3_588" x="91.2102" y="123.065" width="329.481" height="276.987" filterUnits="userSpaceOnUse" color-interpolation-filters="sRGB">
<feFlood flood-opacity="0" result="BackgroundImageFix"/>
<feColorMatrix in="SourceAlpha" type="matrix" values="0 0 0 0 0 0 0 0 0 0 0 0 0 0 0 0 0 0 127 0" result="hardAlpha"/>
<feOffset dy="5.55843"/>
<feGaussianBlur stdDeviation="5.55843"/>
<feComposite in2="hardAlpha" operator="out"/>
<feColorMatrix type="matrix" values="0 0 0 0 0.241667 0 0 0 0 0.241667 0 0 0 0 0.241667 0 0 0 1 0"/>
<feBlend mode="overlay" in2="BackgroundImageFix" result="effect1_dropShadow_3_588"/>
<feBlend mode="normal" in="SourceGraphic" in2="effect1_dropShadow_3_588" result="shape"/>
</filter>
<radialGradient id="paint0_radial_3_588" cx="0" cy="0" r="1" gradientUnits="userSpaceOnUse" gradientTransform="translate(256 43) rotate(90) scale(128.865)">
<stop stop-color="white"/>
<stop offset="1" stop-color="#494949" stop-opacity="0"/>
</radialGradient>
<linearGradient id="paint1_linear_3_588" x1="256" y1="142.623" x2="256" y2="369.377" gradientUnits="userSpaceOnUse">
<stop stop-color="white"/>
<stop offset="1" stop-color="#9F9F9F"/>
</linearGradient>
<radialGradient id="paint2_radial_3_588" cx="0" cy="0" r="1" gradientUnits="userSpaceOnUse" gradientTransform="translate(326.645 306.035) rotate(-131.943) scale(69.273 55.9372)">
<stop stop-color="#44B9FF"/>
<stop offset="1" stop-color="#0B7EC2"/>
</radialGradient>
<radialGradient id="paint3_radial_3_588" cx="0" cy="0" r="1" gradientUnits="userSpaceOnUse" gradientTransform="translate(372.194 350.833) rotate(-139.6) scale(261.994 322.532)">
<stop stop-color="#ED5D0E"/>
<stop offset="1" stop-color="#FFB891"/>
</radialGradient>
<clipPath id="clip0_3_588">
<rect x="43" y="43" width="426" height="426" rx="112" fill="white"/>
</clipPath>
</defs>
</svg>
