<svg width="512" height="512" viewBox="0 0 512 512" fill="none" xmlns="http://www.w3.org/2000/svg">
<g filter="url(#filter0_dddiii_3_239)">
<g clip-path="url(#clip0_3_239)">
<rect x="43" y="43" width="426" height="426" rx="112" fill="black" fill-opacity="0.55" shape-rendering="crispEdges"/>
<g style="mix-blend-mode:lighten" filter="url(#filter1_f_3_239)">
<circle cx="387.901" cy="104.365" r="166.139" fill="#DC4537" fill-opacity="0.2"/>
</g>
<g style="mix-blend-mode:lighten" filter="url(#filter2_f_3_239)">
<circle cx="91.6896" cy="90.4515" r="186.797" fill="#745EFF" fill-opacity="0.15"/>
</g>
<g style="mix-blend-mode:lighten" filter="url(#filter3_f_3_239)">
<circle cx="118.811" cy="351.951" r="137.049" fill="#12FF8D" fill-opacity="0.05"/>
</g>
<g style="mix-blend-mode:lighten" filter="url(#filter4_f_3_239)">
<circle cx="403.664" cy="316.187" r="150.376" fill="#FFE91F" fill-opacity="0.08"/>
</g>
<g style="mix-blend-mode:overlay" filter="url(#filter5_f_3_239)">
<circle cx="265.5" cy="514.5" r="264.5" fill="white" fill-opacity="0.05"/>
</g>
</g>
<rect x="45" y="45" width="422" height="422" rx="110" stroke="url(#paint0_radial_3_239)" stroke-opacity="0.4" stroke-width="4" style="mix-blend-mode:lighten" shape-rendering="crispEdges"/>
</g>
<g filter="url(#filter6_d_3_239)">
<circle cx="256.57" cy="256.57" r="138.719" stroke="url(#paint1_linear_3_239)" stroke-opacity="0.4" stroke-width="14" style="mix-blend-mode:overlay" shape-rendering="crispEdges"/>
</g>
<mask id="mask0_3_239" style="mask-type:luminance" maskUnits="userSpaceOnUse" x="124" y="124" width="265" height="265">
<path d="M251.723 124.851L243.74 125.136L234.047 126.562L231.196 126.847L227.204 127.987L225.494 128.272L218.366 129.983L215.515 131.123L214.66 131.409L209.528 133.119L208.672 133.689L206.677 134.26L205.251 134.83L204.396 135.4L196.698 139.106L195.557 139.391L194.417 140.247L193.847 140.532L192.421 141.102L192.136 141.387L190.711 142.243L190.426 142.528L189 143.383L188.715 143.668L187.289 144.238L187.004 144.523L185.579 145.379L185.294 145.664L183.868 146.234L183.583 146.804L182.728 147.089L182.157 147.66L181.587 148.23L180.732 148.8L180.162 149.085L179.877 149.37L179.021 149.94L178.451 150.511L177.596 150.796L177.026 151.651L176.17 151.936L175.6 152.506L175.03 152.792L174.174 153.647L173.604 153.932L172.179 155.357L171.323 155.643L168.187 158.779L167.617 159.064L164.481 162.2L163.911 162.485L162.77 163.626L162.485 164.481L159.064 167.902L158.494 168.472L155.643 171.608L155.072 172.179L153.647 173.604L153.362 174.46L152.792 175.03L152.506 175.885L151.651 176.455L151.366 177.026L150.796 177.881L150.226 178.451L149.655 179.306L149.37 179.877L148.8 180.162L148.515 181.017L147.945 181.587L147.66 182.443L146.804 183.013L146.519 183.868L146.234 184.153L145.379 185.579L145.094 185.864L144.523 187.289L144.238 187.574L143.383 189L143.098 189.285L142.243 190.711L141.957 190.996L141.387 192.421L141.102 192.706L140.247 194.132L139.962 194.417L139.677 195.557L137.396 199.549L137.111 200.689L135.115 204.966L134.83 205.821L134.26 206.677L133.689 208.672L133.404 209.243L132.264 212.379L131.979 213.234L130.553 217.226L130.268 218.081L127.132 230.34L126.562 234.617L125.706 239.464L125.421 241.46L125.136 244.881L124.851 252.008V261.132H125.136V268.26H125.421V271.396H125.706V273.677H125.992V276.243H126.562V278.238H126.847V280.519H127.132V282.8H127.417V284.226H127.702V285.366H128.272V286.791H128.557V288.217H128.843V289.643H129.128V291.068H129.413V292.494H129.983V293.919H130.268V295.06H130.553V295.915H130.838V297.055H131.409V297.911H131.694V299.051H131.979V299.906H132.264V300.762H132.549V301.902H133.119V302.757H133.404V303.898H133.689V304.753H133.974V305.894H134.26V306.749H134.83V307.604H135.115V308.46H135.4V309.03H135.685V309.6H136.255V310.455H136.54V311.026H136.826V311.881H137.111V312.736H137.396V313.591H137.966V314.162H138.251V315.017H138.536V315.587H138.821V316.443H139.106V317.013H139.677V317.583H139.962V318.723H140.247L140.532 319.008V319.864H141.102V320.434H141.387L141.672 320.719V321.574H141.957V322.145H142.243L142.813 322.43V323.285H143.098V323.855H143.383L143.668 324.14V324.996H144.238V325.566H144.523L144.809 325.851V326.706H145.094V327.277H145.379L145.949 327.847V328.417H146.234V328.987H146.519L146.804 329.557V330.128H147.089L147.945 330.983V331.553H148.23L148.8 332.123V332.979H149.37L149.94 333.549V334.404H150.226L151.081 334.974V335.83H151.366L151.936 336.4V336.97H152.506L153.077 337.826V338.396H153.362L154.217 339.251V339.821H154.502L156.783 342.387V342.957H157.353L161.06 346.664V347.519H161.345L165.336 351.226L165.906 351.511L169.328 354.932L170.183 355.502L172.749 358.068L173.604 358.638L174.174 359.208L175.03 359.494L175.6 360.349L176.17 360.634L177.026 361.204L177.596 361.774L178.451 362.345L179.021 362.63L179.877 363.485L180.447 363.77L181.017 364.34L181.872 364.911L182.443 365.481L183.298 365.766L183.583 366.051L184.153 366.621L184.723 366.906L185.864 367.477L186.434 367.762L187.574 368.617L188.145 368.902L189.57 369.472L189.855 370.042L191.281 370.613L191.566 370.898L192.992 371.753L193.277 372.038L198.123 374.604L199.264 374.889L203.255 376.885L204.396 377.17L206.391 378.311L208.387 378.881L209.243 379.166L212.379 380.306L212.949 380.591L217.226 382.017L217.796 382.302L230.34 385.438L232.051 386.008L234.047 386.294L241.46 387.149L243.455 387.719L250.013 388.004L263.983 388.289V388.004L269.97 387.719L274.817 386.864L277.098 386.579L281.945 386.008L283.655 385.438L294.774 382.872L298.766 381.447L299.621 381.162L304.753 379.166L305.323 378.881L307.604 378.311L308.745 377.455L309.885 377.17L314.162 375.174L315.017 374.889L320.719 372.038L321.004 371.753L322.43 370.898L322.715 370.613L324.14 370.042L324.426 369.472L325.851 368.902L326.136 368.617L327.562 367.762L327.847 367.477L329.272 366.906L329.557 366.621L330.413 366.051L330.698 365.766L331.268 365.481L332.123 364.911L332.694 364.34L333.549 363.77L334.119 363.485L334.689 362.63L335.545 362.345L336.115 361.774L336.97 361.204L337.54 360.634L338.396 360.349L338.966 359.494L339.536 359.208L340.392 358.638L340.962 358.068L343.528 355.787L344.098 355.502L347.519 352.081L348.374 351.511L352.366 347.519L352.936 346.664L355.502 344.098L355.787 343.243L358.638 340.391L358.923 339.821L359.779 339.251L360.064 338.396L360.634 337.826L361.204 336.97L361.774 336.4L362.06 335.83L362.915 334.974L363.2 334.404L363.485 333.834L363.77 333.264L364.626 332.694L364.911 331.838L365.481 331.268L366.051 330.413L366.621 329.843L367.477 328.417L367.762 328.132L368.332 326.706L368.617 326.421L369.472 324.996L369.757 324.711L370.328 323.285L370.898 323L371.468 321.574L371.753 321.289L372.608 319.864L372.894 319.294L374.034 317.298L374.319 316.443L376.6 311.596L377.17 310.455L378.881 307.034L379.166 305.894L379.451 305.323L379.736 304.183L380.306 303.613L380.591 302.472L380.877 301.902L383.157 294.489L386.009 283.37L386.294 281.66L388.004 269.685L388.574 262.557L388.86 250.583H388.574V243.17H388.004V240.889H387.719V238.323H387.434V236.043H387.149V233.477H386.864V231.196H386.294V229.77H386.009V228.345H385.723V226.919H385.438V225.494H385.153V224.353H384.583V222.928H384.298V221.502H384.013V220.077H383.728V218.651H383.157V217.796H382.872V216.655H382.587V215.515H382.302V214.66H382.017V213.519H381.447V212.379H381.162V211.809H380.877V210.668H380.591V210.098H380.306V208.957H379.736V208.387H379.451V207.247H379.166V206.677H378.881V205.536H378.311V204.966H378.026V204.111H377.74V203.54H377.455V202.685H377.17V202.115H376.6V201.26H376.315V200.404H376.03V199.549H375.745V198.979H375.46V198.409H374.889V197.553H374.604V196.983H374.319V195.843H374.034V195.272H373.464V194.417H373.179V193.847L372.894 193.562H372.608V192.706H372.323V192.136L371.753 191.566H371.468V190.996H371.183V190.426L370.898 189.855H370.328V189.285H370.043V188.715L369.757 188.145H369.472V187.574H369.187V186.719L368.617 186.434H368.332V185.864H368.047V185.008L367.762 184.723H367.477V184.153H366.906V183.298L366.621 183.013H366.336V182.443L365.481 181.587H365.196V181.017L364.626 180.162H364.34V179.591L363.485 179.021H363.2V178.166L362.63 177.596H362.06V176.74L361.774 176.455H361.489V175.885L360.634 175.03H360.349V174.46L359.779 173.604H359.494V173.034L357.213 171.038H356.928V170.183L354.647 167.902H354.077V167.047L351.796 164.766H351.511V163.911L349.8 162.2L348.945 161.915L345.809 158.779L345.238 158.494L342.387 155.643L341.817 155.357L340.392 153.932L339.536 153.647L338.966 152.792L338.396 152.506L337.54 151.936L336.97 151.651L336.115 150.796L335.545 150.511L334.689 149.94L334.119 149.37L333.549 148.8L332.694 148.515L332.123 147.66L331.268 147.374L330.983 147.089L330.413 146.804L329.843 146.234L329.272 145.949L328.987 145.664L326.706 144.523L326.421 144.238L324.996 143.668L324.711 143.383L323.285 142.528L323 142.243L321.574 141.387L321.289 141.102L319.864 140.532L319.579 140.247L317.583 139.106L316.443 138.821L308.745 134.83L307.889 134.545L307.034 134.26L303.898 133.119L303.328 132.834L297.055 130.838L296.485 130.553L295.345 129.983L293.919 129.698L292.209 129.413L283.94 127.417L282.23 126.847L274.817 125.991L272.251 125.706L269.685 125.136L261.987 124.851H251.723Z" fill="white"/>
</mask>
<g mask="url(#mask0_3_239)">
<path d="M145.664 124.566V286.506H204.396L256.855 196.413H388.86V124.566H145.664Z" fill="url(#paint2_radial_3_239)"/>
</g>
<mask id="mask1_3_239" style="mask-type:luminance" maskUnits="userSpaceOnUse" x="124" y="124" width="265" height="265">
<path d="M251.723 124.851L243.74 125.136L234.047 126.562L231.196 126.847L227.204 127.987L225.494 128.272L218.366 129.983L215.515 131.123L214.66 131.409L209.528 133.119L208.672 133.689L206.677 134.26L205.251 134.83L204.396 135.4L196.698 139.106L195.557 139.391L194.417 140.247L193.847 140.532L192.421 141.102L192.136 141.387L190.711 142.243L190.426 142.528L189 143.383L188.715 143.668L187.289 144.238L187.004 144.523L185.579 145.379L185.294 145.664L183.868 146.234L183.583 146.804L182.728 147.089L182.157 147.66L181.587 148.23L180.732 148.8L180.162 149.085L179.877 149.37L179.021 149.94L178.451 150.511L177.596 150.796L177.026 151.651L176.17 151.936L175.6 152.506L175.03 152.792L174.174 153.647L173.604 153.932L172.179 155.357L171.323 155.643L168.187 158.779L167.617 159.064L164.481 162.2L163.911 162.485L162.77 163.626L162.485 164.481L159.064 167.902L158.494 168.472L155.643 171.608L155.072 172.179L153.647 173.604L153.362 174.46L152.792 175.03L152.506 175.885L151.651 176.455L151.366 177.026L150.796 177.881L150.226 178.451L149.655 179.306L149.37 179.877L148.8 180.162L148.515 181.017L147.945 181.587L147.66 182.443L146.804 183.013L146.519 183.868L146.234 184.153L145.379 185.579L145.094 185.864L144.523 187.289L144.238 187.574L143.383 189L143.098 189.285L142.243 190.711L141.957 190.996L141.387 192.421L141.102 192.706L140.247 194.132L139.962 194.417L139.677 195.557L137.396 199.549L137.111 200.689L135.115 204.966L134.83 205.821L134.26 206.677L133.689 208.672L133.404 209.243L132.264 212.379L131.979 213.234L130.553 217.226L130.268 218.081L127.132 230.34L126.562 234.617L125.706 239.464L125.421 241.46L125.136 244.881L124.851 252.008V261.132H125.136V268.26H125.421V271.396H125.706V273.677H125.992V276.243H126.562V278.238H126.847V280.519H127.132V282.8H127.417V284.226H127.702V285.366H128.272V286.791H128.557V288.217H128.843V289.643H129.128V291.068H129.413V292.494H129.983V293.919H130.268V295.06H130.553V295.915H130.838V297.055H131.409V297.911H131.694V299.051H131.979V299.906H132.264V300.762H132.549V301.902H133.119V302.757H133.404V303.898H133.689V304.753H133.974V305.894H134.26V306.749H134.83V307.604H135.115V308.46H135.4V309.03H135.685V309.6H136.255V310.455H136.54V311.026H136.826V311.881H137.111V312.736H137.396V313.591H137.966V314.162H138.251V315.017H138.536V315.587H138.821V316.443H139.106V317.013H139.677V317.583H139.962V318.723H140.247L140.532 319.008V319.864H141.102V320.434H141.387L141.672 320.719V321.574H141.957V322.145H142.243L142.813 322.43V323.285H143.098V323.855H143.383L143.668 324.14V324.996H144.238V325.566H144.523L144.809 325.851V326.706H145.094V327.277H145.379L145.949 327.847V328.417H146.234V328.987H146.519L146.804 329.557V330.128H147.089L147.945 330.983V331.553H148.23L148.8 332.123V332.979H149.37L149.94 333.549V334.404H150.226L151.081 334.974V335.83H151.366L151.936 336.4V336.97H152.506L153.077 337.826V338.396H153.362L154.217 339.251V339.821H154.502L156.783 342.387V342.957H157.353L161.06 346.664V347.519H161.345L165.336 351.226L165.906 351.511L169.328 354.932L170.183 355.502L172.749 358.068L173.604 358.638L174.174 359.208L175.03 359.494L175.6 360.349L176.17 360.634L177.026 361.204L177.596 361.774L178.451 362.345L179.021 362.63L179.877 363.485L180.447 363.77L181.017 364.34L181.872 364.911L182.443 365.481L183.298 365.766L183.583 366.051L184.153 366.621L184.723 366.906L185.864 367.477L186.434 367.762L187.574 368.617L188.145 368.902L189.57 369.472L189.855 370.042L191.281 370.613L191.566 370.898L192.992 371.753L193.277 372.038L198.123 374.604L199.264 374.889L203.255 376.885L204.396 377.17L206.391 378.311L208.387 378.881L209.243 379.166L212.379 380.306L212.949 380.591L217.226 382.017L217.796 382.302L230.34 385.438L232.051 386.008L234.047 386.294L241.46 387.149L243.455 387.719L250.013 388.004L263.983 388.289V388.004L269.97 387.719L274.817 386.864L277.098 386.579L281.945 386.008L283.655 385.438L294.774 382.872L298.766 381.447L299.621 381.162L304.753 379.166L305.323 378.881L307.604 378.311L308.745 377.455L309.885 377.17L314.162 375.174L315.017 374.889L320.719 372.038L321.004 371.753L322.43 370.898L322.715 370.613L324.14 370.042L324.426 369.472L325.851 368.902L326.136 368.617L327.562 367.762L327.847 367.477L329.272 366.906L329.557 366.621L330.413 366.051L330.698 365.766L331.268 365.481L332.123 364.911L332.694 364.34L333.549 363.77L334.119 363.485L334.689 362.63L335.545 362.345L336.115 361.774L336.97 361.204L337.54 360.634L338.396 360.349L338.966 359.494L339.536 359.208L340.392 358.638L340.962 358.068L343.528 355.787L344.098 355.502L347.519 352.081L348.374 351.511L352.366 347.519L352.936 346.664L355.502 344.098L355.787 343.243L358.638 340.391L358.923 339.821L359.779 339.251L360.064 338.396L360.634 337.826L361.204 336.97L361.774 336.4L362.06 335.83L362.915 334.974L363.2 334.404L363.485 333.834L363.77 333.264L364.626 332.694L364.911 331.838L365.481 331.268L366.051 330.413L366.621 329.843L367.477 328.417L367.762 328.132L368.332 326.706L368.617 326.421L369.472 324.996L369.757 324.711L370.328 323.285L370.898 323L371.468 321.574L371.753 321.289L372.608 319.864L372.894 319.294L374.034 317.298L374.319 316.443L376.6 311.596L377.17 310.455L378.881 307.034L379.166 305.894L379.451 305.323L379.736 304.183L380.306 303.613L380.591 302.472L380.877 301.902L383.157 294.489L386.009 283.37L386.294 281.66L388.004 269.685L388.574 262.557L388.86 250.583H388.574V243.17H388.004V240.889H387.719V238.323H387.434V236.043H387.149V233.477H386.864V231.196H386.294V229.77H386.009V228.345H385.723V226.919H385.438V225.494H385.153V224.353H384.583V222.928H384.298V221.502H384.013V220.077H383.728V218.651H383.157V217.796H382.872V216.655H382.587V215.515H382.302V214.66H382.017V213.519H381.447V212.379H381.162V211.809H380.877V210.668H380.591V210.098H380.306V208.957H379.736V208.387H379.451V207.247H379.166V206.677H378.881V205.536H378.311V204.966H378.026V204.111H377.74V203.54H377.455V202.685H377.17V202.115H376.6V201.26H376.315V200.404H376.03V199.549H375.745V198.979H375.46V198.409H374.889V197.553H374.604V196.983H374.319V195.843H374.034V195.272H373.464V194.417H373.179V193.847L372.894 193.562H372.608V192.706H372.323V192.136L371.753 191.566H371.468V190.996H371.183V190.426L370.898 189.855H370.328V189.285H370.043V188.715L369.757 188.145H369.472V187.574H369.187V186.719L368.617 186.434H368.332V185.864H368.047V185.008L367.762 184.723H367.477V184.153H366.906V183.298L366.621 183.013H366.336V182.443L365.481 181.587H365.196V181.017L364.626 180.162H364.34V179.591L363.485 179.021H363.2V178.166L362.63 177.596H362.06V176.74L361.774 176.455H361.489V175.885L360.634 175.03H360.349V174.46L359.779 173.604H359.494V173.034L357.213 171.038H356.928V170.183L354.647 167.902H354.077V167.047L351.796 164.766H351.511V163.911L349.8 162.2L348.945 161.915L345.809 158.779L345.238 158.494L342.387 155.643L341.817 155.357L340.392 153.932L339.536 153.647L338.966 152.792L338.396 152.506L337.54 151.936L336.97 151.651L336.115 150.796L335.545 150.511L334.689 149.94L334.119 149.37L333.549 148.8L332.694 148.515L332.123 147.66L331.268 147.374L330.983 147.089L330.413 146.804L329.843 146.234L329.272 145.949L328.987 145.664L326.706 144.523L326.421 144.238L324.996 143.668L324.711 143.383L323.285 142.528L323 142.243L321.574 141.387L321.289 141.102L319.864 140.532L319.579 140.247L317.583 139.106L316.443 138.821L308.745 134.83L307.889 134.545L307.034 134.26L303.898 133.119L303.328 132.834L297.055 130.838L296.485 130.553L295.345 129.983L293.919 129.698L292.209 129.413L283.94 127.417L282.23 126.847L274.817 125.991L272.251 125.706L269.685 125.136L261.987 124.851H251.723Z" fill="white"/>
</mask>
<g mask="url(#mask1_3_239)">
<path d="M124.566 388.289H250.298L308.745 330.128V286.506H204.396L124.566 149.37V388.289Z" fill="url(#paint3_radial_3_239)"/>
</g>
<mask id="mask2_3_239" style="mask-type:luminance" maskUnits="userSpaceOnUse" x="124" y="185" width="185" height="204">
<path d="M145.379 185.579L145.094 185.864L144.523 187.289L144.238 187.574L143.383 189L143.098 189.285L142.243 190.71L141.957 190.996L141.387 192.421L141.102 192.706L140.247 194.132L139.962 194.417L139.677 195.557L137.396 199.549L137.111 200.689L135.115 204.966L134.83 205.821L134.26 206.676L133.689 208.672L133.404 209.242L132.264 212.379L131.979 213.234L130.553 217.225L130.268 218.081L127.132 230.34L126.562 234.617L125.706 239.464L125.421 241.459L125.136 244.881L124.851 252.008V261.132H125.136V268.259H125.421V271.396H125.706V273.676H125.992V276.242H126.562V278.238H126.847V280.519H127.132V282.8H127.417V284.225H127.702V285.366H128.272V286.791H128.557V288.217H128.843V289.642H129.128V291.068H129.413V292.493H129.983V293.919H130.268V295.059H130.553V295.915H130.838V297.055H131.409V297.911H131.694V299.051H131.979V299.906H132.264V300.762H132.549V301.902H133.119V302.757H133.404V303.898H133.689V304.753H133.974V305.893H134.26V306.749H134.83V307.604H135.115V308.459H135.4V309.03H135.685V309.6H136.255V310.455H136.54V311.025H136.826V311.881H137.111V312.736H137.396V313.591H137.966V314.162H138.251V315.017H138.536V315.587H138.821V316.442H139.106V317.013H139.677V317.583H139.962V318.723H140.247L140.532 319.008V319.864H141.102V320.434H141.387L141.672 320.719V321.574H141.957V322.145H142.243L142.813 322.43V323.285H143.098V323.855H143.383L143.668 324.14V324.996H144.238V325.566H144.523L144.809 325.851V326.706H145.094V327.276H145.379L145.949 327.847V328.417H146.234V328.987H146.519L146.804 329.557V330.128H147.089L147.945 330.983V331.553H148.23L148.8 332.123V332.979H149.37L149.94 333.549V334.404H150.226L151.081 334.974V335.83H151.366L151.936 336.4V336.97H152.506L153.077 337.825V338.396H153.362L154.217 339.251V339.821H154.502L156.783 342.387V342.957H157.353L161.06 346.664V347.519H161.345L165.336 351.225L165.906 351.51L169.328 354.932L170.183 355.502L172.749 358.068L173.604 358.638L174.174 359.208L175.03 359.493L175.6 360.349L176.17 360.634L177.026 361.204L177.596 361.774L178.451 362.345L179.021 362.63L179.877 363.485L180.447 363.77L181.017 364.34L181.872 364.911L182.443 365.481L183.298 365.766L183.583 366.051L184.153 366.621L184.723 366.906L185.864 367.476L186.434 367.762L187.574 368.617L188.145 368.902L189.57 369.472L189.855 370.042L191.281 370.613L191.566 370.898L192.991 371.753L193.277 372.038L198.123 374.604L199.264 374.889L203.255 376.885L204.396 377.17L206.391 378.311L208.387 378.881L209.243 379.166L212.379 380.306L212.949 380.591L217.226 382.017L217.796 382.302L230.34 385.438L232.051 386.008L234.047 386.293L241.46 387.149L243.455 387.719L250.013 388.004L250.583 388.289V388.004L277.383 361.204L277.953 360.919L308.46 330.413L308.745 286.506L204.681 286.221L204.396 285.936H204.111V285.081H203.54V284.511L203.255 284.225H202.97V283.37H202.685V282.8H202.115V281.945L201.83 281.659H201.545V281.089H201.26V280.234L200.974 279.949H200.404V279.379H200.119V278.523H199.834V277.953L199.549 277.668H199.264V276.813H198.694V276.242L198.409 275.672H198.123V275.102H197.838V274.532H197.268V273.676L196.983 273.391H196.698V272.821H196.413V271.966L196.128 271.681H195.557V270.825H195.272V270.255H194.987V269.685L194.702 269.115H194.417V268.545H193.847V267.974L193.562 267.404H193.277V266.834H192.991V265.979H192.421V265.408L192.136 265.123H191.851V264.268H191.566V263.698L191.281 263.413H190.711V262.557H190.426V261.987H190.14V261.132L189.855 260.847H189.57V260.276H189V259.421L188.715 259.136H188.43V258.566H188.145V257.71H187.574V257.14L187.289 256.855H187.004V256H186.719V255.43L186.434 255.145H185.864V254.289H185.579V253.719H185.294V252.864L185.009 252.579H184.723V252.008H184.153V251.153L183.868 250.868H183.583V250.298H183.298V249.442H182.728V248.872L182.443 248.587H182.157V247.732H181.872V247.162L181.587 246.591H181.017V246.021H180.732V245.451H180.447V244.596L180.162 244.311H179.877V243.74H179.306V242.885L179.021 242.6H178.736V242.03H178.451V241.174H177.881V240.604L177.596 240.034H177.311V239.464H177.026V238.893L176.74 238.323H176.17V237.753H175.885V237.183H175.6V236.328L175.315 236.042H175.03V235.187H174.46V234.617L174.174 234.332H173.889V233.476H173.604V232.906H173.034V232.336L172.749 231.766H172.464V231.196H172.179V230.34L171.894 230.055H171.323V229.485H171.038V228.63H170.753V228.059L170.468 227.774H170.183V226.919H169.613V226.349L169.328 226.064H169.043V225.208H168.757V224.638H168.187V223.783L167.902 223.498H167.617V222.928H167.332V222.072L167.047 221.787H166.477V221.217H166.191V220.362H165.906V219.791L165.621 219.506H165.336V218.651H164.766V218.081L164.481 217.796H164.196V216.94H163.911V216.37H163.34V215.515L163.055 215.23H162.77V214.659H162.485V213.804L162.2 213.519H161.63V212.949H161.345V212.093H161.06V211.523L160.774 210.953H160.489V210.383H159.919V209.813L159.634 209.242H159.349V208.672H159.064V207.817H158.494V207.247L158.209 206.962H157.923V206.106H157.638V205.536L157.353 205.251H156.783V204.396H156.498V203.825H156.213V203.255L155.928 202.685H155.643V202.115H155.072V201.259L154.787 200.974H154.502V200.404H154.217V199.549H153.647V198.979L153.362 198.693H153.077V197.838H152.792V197.268L152.506 196.983H151.936V196.128H151.651V195.557H151.366V194.702L151.081 194.417H150.796V193.847H150.226V192.991L149.94 192.706H149.655V192.136H149.37V191.281H148.8V190.71L148.515 190.425H148.23V189.57H147.945V189L147.66 188.715H147.089V187.859H146.804V187.289H146.519V186.434L146.234 186.149H145.949V185.579H145.379Z" fill="white"/>
</mask>
<g mask="url(#mask2_3_239)">
<path d="M256.855 196.413L308.745 286.506L250.298 388.289H388.86V196.413H256.855Z" fill="#FECD43"/>
</g>
<mask id="mask3_3_239" style="mask-type:luminance" maskUnits="userSpaceOnUse" x="124" y="124" width="265" height="265">
<path d="M251.723 124.851L243.74 125.136L234.047 126.562L231.196 126.847L227.204 127.987L225.494 128.272L218.366 129.983L215.515 131.123L214.66 131.409L209.528 133.119L208.672 133.689L206.677 134.26L205.251 134.83L204.396 135.4L196.698 139.106L195.557 139.391L194.417 140.247L193.847 140.532L192.421 141.102L192.136 141.387L190.711 142.243L190.426 142.528L189 143.383L188.715 143.668L187.289 144.238L187.004 144.523L185.579 145.379L185.294 145.664L183.868 146.234L183.583 146.804L182.728 147.089L182.157 147.66L181.587 148.23L180.732 148.8L180.162 149.085L179.877 149.37L179.021 149.94L178.451 150.511L177.596 150.796L177.026 151.651L176.17 151.936L175.6 152.506L175.03 152.792L174.174 153.647L173.604 153.932L172.179 155.357L171.323 155.643L168.187 158.779L167.617 159.064L164.481 162.2L163.911 162.485L162.77 163.626L162.485 164.481L159.064 167.902L158.494 168.472L155.643 171.608L155.072 172.179L153.647 173.604L153.362 174.46L152.792 175.03L152.506 175.885L151.651 176.455L151.366 177.026L150.796 177.881L150.226 178.451L149.655 179.306L149.37 179.877L148.8 180.162L148.515 181.017L147.945 181.587L147.66 182.443L146.804 183.013L146.519 183.868L146.234 184.153L145.379 185.579L145.094 185.864L144.523 187.289L144.238 187.574L143.383 189L143.098 189.285L142.243 190.711L141.957 190.996L141.387 192.421L141.102 192.706L140.247 194.132L139.962 194.417L139.677 195.557L137.396 199.549L137.111 200.689L135.115 204.966L134.83 205.821L134.26 206.677L133.689 208.672L133.404 209.243L132.264 212.379L131.979 213.234L130.553 217.226L130.268 218.081L127.132 230.34L126.562 234.617L125.706 239.464L125.421 241.46L125.136 244.881L124.851 252.008V261.132H125.136V268.26H125.421V271.396H125.706V273.677H125.992V276.243H126.562V278.238H126.847V280.519H127.132V282.8H127.417V284.226H127.702V285.366H128.272V286.791H128.557V288.217H128.843V289.643H129.128V291.068H129.413V292.494H129.983V293.919H130.268V295.06H130.553V295.915H130.838V297.055H131.409V297.911H131.694V299.051H131.979V299.906H132.264V300.762H132.549V301.902H133.119V302.757H133.404V303.898H133.689V304.753H133.974V305.894H134.26V306.749H134.83V307.604H135.115V308.46H135.4V309.03H135.685V309.6H136.255V310.455H136.54V311.026H136.826V311.881H137.111V312.736H137.396V313.591H137.966V314.162H138.251V315.017H138.536V315.587H138.821V316.443H139.106V317.013H139.677V317.583H139.962V318.723H140.247L140.532 319.008V319.864H141.102V320.434H141.387L141.672 320.719V321.574H141.957V322.145H142.243L142.813 322.43V323.285H143.098V323.855H143.383L143.668 324.14V324.996H144.238V325.566H144.523L144.809 325.851V326.706H145.094V327.277H145.379L145.949 327.847V328.417H146.234V328.987H146.519L146.804 329.557V330.128H147.089L147.945 330.983V331.553H148.23L148.8 332.123V332.979H149.37L149.94 333.549V334.404H150.226L151.081 334.974V335.83H151.366L151.936 336.4V336.97H152.506L153.077 337.826V338.396H153.362L154.217 339.251V339.821H154.502L156.783 342.387V342.957H157.353L161.06 346.664V347.519H161.345L165.336 351.226L165.906 351.511L169.328 354.932L170.183 355.502L172.749 358.068L173.604 358.638L174.174 359.208L175.03 359.494L175.6 360.349L176.17 360.634L177.026 361.204L177.596 361.774L178.451 362.345L179.021 362.63L179.877 363.485L180.447 363.77L181.017 364.34L181.872 364.911L182.443 365.481L183.298 365.766L183.583 366.051L184.153 366.621L184.723 366.906L185.864 367.477L186.434 367.762L187.574 368.617L188.145 368.902L189.57 369.472L189.855 370.042L191.281 370.613L191.566 370.898L192.992 371.753L193.277 372.038L198.123 374.604L199.264 374.889L203.255 376.885L204.396 377.17L206.391 378.311L208.387 378.881L209.243 379.166L212.379 380.306L212.949 380.591L217.226 382.017L217.796 382.302L230.34 385.438L232.051 386.008L234.047 386.294L241.46 387.149L243.455 387.719L250.013 388.004L263.983 388.289V388.004L269.97 387.719L274.817 386.864L277.098 386.579L281.945 386.008L283.655 385.438L294.774 382.872L298.766 381.447L299.621 381.162L304.753 379.166L305.323 378.881L307.604 378.311L308.745 377.455L309.885 377.17L314.162 375.174L315.017 374.889L320.719 372.038L321.004 371.753L322.43 370.898L322.715 370.613L324.14 370.042L324.426 369.472L325.851 368.902L326.136 368.617L327.562 367.762L327.847 367.477L329.272 366.906L329.557 366.621L330.413 366.051L330.698 365.766L331.268 365.481L332.123 364.911L332.694 364.34L333.549 363.77L334.119 363.485L334.689 362.63L335.545 362.345L336.115 361.774L336.97 361.204L337.54 360.634L338.396 360.349L338.966 359.494L339.536 359.208L340.392 358.638L340.962 358.068L343.528 355.787L344.098 355.502L347.519 352.081L348.374 351.511L352.366 347.519L352.936 346.664L355.502 344.098L355.787 343.243L358.638 340.391L358.923 339.821L359.779 339.251L360.064 338.396L360.634 337.826L361.204 336.97L361.774 336.4L362.06 335.83L362.915 334.974L363.2 334.404L363.485 333.834L363.77 333.264L364.626 332.694L364.911 331.838L365.481 331.268L366.051 330.413L366.621 329.843L367.477 328.417L367.762 328.132L368.332 326.706L368.617 326.421L369.472 324.996L369.757 324.711L370.328 323.285L370.898 323L371.468 321.574L371.753 321.289L372.608 319.864L372.894 319.294L374.034 317.298L374.319 316.443L376.6 311.596L377.17 310.455L378.881 307.034L379.166 305.894L379.451 305.323L379.736 304.183L380.306 303.613L380.591 302.472L380.877 301.902L383.157 294.489L386.009 283.37L386.294 281.66L388.004 269.685L388.574 262.557L388.86 250.583H388.574V243.17H388.004V240.889H387.719V238.323H387.434V236.043H387.149V233.477H386.864V231.196H386.294V229.77H386.009V228.345H385.723V226.919H385.438V225.494H385.153V224.353H384.583V222.928H384.298V221.502H384.013V220.077H383.728V218.651H383.157V217.796H382.872V216.655H382.587V215.515H382.302V214.66H382.017V213.519H381.447V212.379H381.162V211.809H380.877V210.668H380.591V210.098H380.306V208.957H379.736V208.387H379.451V207.247H379.166V206.677H378.881V205.536H378.311V204.966H378.026V204.111H377.74V203.54H377.455V202.685H377.17V202.115H376.6V201.26H376.315V200.404H376.03V199.549H375.745V198.979H375.46V198.409H374.889V197.553H374.604V196.983H374.319V195.843H374.034V195.272H373.464V194.417H373.179V193.847L372.894 193.562H372.608V192.706H372.323V192.136L371.753 191.566H371.468V190.996H371.183V190.426L370.898 189.855H370.328V189.285H370.043V188.715L369.757 188.145H369.472V187.574H369.187V186.719L368.617 186.434H368.332V185.864H368.047V185.008L367.762 184.723H367.477V184.153H366.906V183.298L366.621 183.013H366.336V182.443L365.481 181.587H365.196V181.017L364.626 180.162H364.34V179.591L363.485 179.021H363.2V178.166L362.63 177.596H362.06V176.74L361.774 176.455H361.489V175.885L360.634 175.03H360.349V174.46L359.779 173.604H359.494V173.034L357.213 171.038H356.928V170.183L354.647 167.902H354.077V167.047L351.796 164.766H351.511V163.911L349.8 162.2L348.945 161.915L345.809 158.779L345.238 158.494L342.387 155.643L341.817 155.357L340.392 153.932L339.536 153.647L338.966 152.792L338.396 152.506L337.54 151.936L336.97 151.651L336.115 150.796L335.545 150.511L334.689 149.94L334.119 149.37L333.549 148.8L332.694 148.515L332.123 147.66L331.268 147.374L330.983 147.089L330.413 146.804L329.843 146.234L329.272 145.949L328.987 145.664L326.706 144.523L326.421 144.238L324.996 143.668L324.711 143.383L323.285 142.528L323 142.243L321.574 141.387L321.289 141.102L319.864 140.532L319.579 140.247L317.583 139.106L316.443 138.821L308.745 134.83L307.889 134.545L307.034 134.26L303.898 133.119L303.328 132.834L297.055 130.838L296.485 130.553L295.345 129.983L293.919 129.698L292.209 129.413L283.94 127.417L282.23 126.847L274.817 125.991L272.251 125.706L269.685 125.136L261.987 124.851H251.723Z" fill="white"/>
</mask>
<g mask="url(#mask3_3_239)">
<path d="M256.855 196.413L308.745 286.506L250.298 388.289H388.86V196.413H256.855Z" fill="url(#paint4_radial_3_239)"/>
</g>
<mask id="mask4_3_239" style="mask-type:luminance" maskUnits="userSpaceOnUse" x="250" y="196" width="139" height="193">
<path d="M256.856 196.413L257.141 196.983L257.711 197.268V197.838H257.996V198.693H258.281V199.264H258.566L259.136 199.549V200.404H259.422V200.974H259.707V201.83H259.992L260.277 202.115V202.685H260.847V203.54H261.132V204.111H261.417L261.702 204.396V205.251H261.988V205.821H262.558V206.676H262.843L263.128 206.962V207.532H263.413V208.387H263.983L264.268 208.672V209.242H264.553V210.098H264.839V210.668H265.124L265.694 210.953V211.808H265.979V212.379H266.264V213.234H266.549L266.834 213.519V214.089H267.405V214.945H267.69V215.515H267.975L268.26 215.8V216.655H268.83V217.225H269.115L269.4 217.796V218.366H269.685V218.936H269.97V219.791H270.541L270.826 220.076V220.647H271.111V221.502H271.396V222.072H271.966L272.251 222.642V223.213H272.536V223.783H272.822V224.638H273.107L273.677 224.923V225.493H273.962V226.349H274.247L274.532 226.634V227.489H274.817V228.059H275.388V228.63H275.673L275.958 229.2V229.77H276.243V230.34H276.528V231.196H277.098L277.383 231.481V232.336H277.668V232.906H277.953V233.476H278.524L278.809 234.047V234.617H279.094V235.187H279.379L279.664 235.757V236.327H280.234V237.183H280.519V237.753H280.805L281.09 238.038V238.893H281.375V239.464H281.945V240.034H282.23L282.515 240.604V241.174H282.8V242.03H283.37V242.6H283.656L283.941 242.885V243.74H284.226V244.31H284.511V244.881H285.081L285.366 245.451V246.021H285.651V246.591H285.936L286.222 247.162V247.732H286.792V248.587H287.077V249.157H287.362L287.647 249.442V250.298H288.217V250.868H288.502V251.723H288.788L289.073 252.008V252.579H289.358V253.434H289.928V254.004H290.213L290.498 254.289V255.145H290.783V255.715H291.068L291.639 256V256.855H291.924V257.425H292.209V258.281H292.494L293.064 258.566V259.136H293.349V259.991H293.634V260.562H293.919L294.205 260.847V261.702H294.775V262.272H295.06V263.128H295.345L295.63 263.413V263.983H295.915V264.838H296.485L296.77 265.123V265.693H297.056V266.549H297.341V267.119H297.911L298.196 267.404V268.259H298.481V268.83H298.766V269.685H299.051L299.622 269.97V270.54H299.907V271.396H300.192V271.966H300.477L300.762 272.251V273.106H301.332V273.676H301.617L301.902 273.962V274.817H302.188V275.387H302.758V276.242H303.043L303.328 276.527V277.098H303.613V277.953H303.898V278.523H304.468L304.753 278.808V279.664H305.039V280.234H305.324V281.089H305.609L306.179 281.374V281.945H306.464V282.8H306.749L307.034 283.085V283.655H307.605V284.51H307.89V285.081H308.175L308.46 285.366V286.221H308.745L307.605 289.072L307.034 289.357L306.179 291.353L305.609 291.638L305.039 293.064L304.753 293.349L303.613 295.63L303.328 295.915L302.188 297.91L301.902 298.196L300.762 300.476L300.477 300.762L299.622 302.757L299.051 303.042L298.196 305.323L297.911 305.608L296.77 307.604L296.485 307.889L295.63 309.315L295.345 309.6L294.205 311.881L293.919 312.166L293.064 314.162L292.494 314.447L291.639 316.728L291.068 317.013L290.213 319.008L289.928 319.293L288.788 321.574L288.502 321.859L287.362 323.855L287.077 324.14L286.222 325.566L285.936 325.851L285.081 328.132L284.511 328.417L283.656 330.413L283.37 330.983L282.23 332.979L281.945 333.264L280.805 335.259L280.519 335.83L279.379 337.825L279.094 338.11L277.953 340.106L277.668 340.391L277.098 341.817L276.528 342.387L275.673 344.383L275.388 344.668L274.247 346.664L273.962 347.234L272.822 349.23L272.536 349.515L271.396 351.51L271.111 352.081L269.97 354.076L269.685 354.361L269.115 355.787L268.83 356.072L267.69 358.068L267.405 358.638L266.264 360.634L265.979 360.919L264.839 362.915L264.553 363.485L263.413 365.481L263.128 365.766L261.988 367.762L261.702 368.332L260.847 370.327L260.277 370.613L259.707 372.038L259.422 372.323L258.281 374.604L257.996 374.889L256.856 376.885L256.57 377.17L255.43 379.166L255.145 379.736L254.29 381.732L253.719 382.017L252.864 384.013L252.294 384.583L251.439 386.579L251.153 386.864L250.583 387.719V388.289L263.983 388.004L269.97 387.719L274.817 386.864L277.098 386.579L281.945 386.008L283.656 385.438L294.775 382.872L298.766 381.447L299.622 381.162L304.753 379.166L305.324 378.881L307.605 378.311L308.745 377.455L309.885 377.17L314.162 375.174L315.017 374.889L320.719 372.038L321.005 371.753L322.43 370.898L322.715 370.613L324.141 370.042L324.426 369.472L325.851 368.902L326.136 368.617L327.562 367.762L327.847 367.476L329.273 366.906L329.558 366.621L330.413 366.051L330.698 365.766L331.268 365.481L332.124 364.91L332.694 364.34L333.549 363.77L334.119 363.485L334.69 362.63L335.545 362.345L336.115 361.774L336.97 361.204L337.541 360.634L338.396 360.349L338.966 359.493L339.536 359.208L340.392 358.638L340.962 358.068L343.528 355.787L344.098 355.502L347.519 352.081L348.375 351.51L352.366 347.519L352.936 346.664L355.502 344.098L355.788 343.242L358.639 340.391L358.924 339.821L359.779 339.251L360.064 338.396L360.634 337.825L361.205 336.97L361.775 336.4L362.06 335.83L362.915 334.974L363.2 334.404L363.485 333.834L363.77 333.264L364.626 332.693L364.911 331.838L365.481 331.268L366.051 330.413L366.622 329.842L367.477 328.417L367.762 328.132L368.332 326.706L368.617 326.421L369.473 324.996L369.758 324.71L370.328 323.285L370.898 323L371.468 321.574L371.753 321.289L372.609 319.864L372.894 319.293L374.034 317.298L374.319 316.442L376.6 311.596L377.17 310.455L378.881 307.034L379.166 305.893L379.451 305.323L379.736 304.183L380.307 303.613L380.592 302.472L380.877 301.902L383.158 294.489L386.009 283.37L386.294 281.659L388.005 269.685L388.575 262.557L388.86 250.583H388.575V243.17H388.005V240.889H387.719V238.323H387.434V236.042H387.149V233.476H386.864V231.196H386.294V229.77H386.009V228.345H385.724V226.919H385.439V225.493H385.153V224.353H384.583V222.927H384.298V221.502H384.013V220.076H383.728V218.651H383.158V217.796H382.873V216.655H382.587V215.515H382.302V214.659H382.017V213.519H381.447V212.379H381.162V211.808H380.877V210.668H380.592V210.098H380.307V208.957H379.736V208.387H379.451V207.247H379.166V206.676H378.881V205.536H378.311V204.966H378.026V204.111H377.741V203.54H377.456V202.685H377.17V202.115H376.6V201.259H376.315V200.404H376.03V199.549H375.745V198.979H375.46V198.408H374.89V197.553H374.605V196.983L374.319 196.413H256.856Z" fill="white"/>
</mask>
<g mask="url(#mask4_3_239)">
<path d="M145.664 124.566V286.506H204.396L256.856 196.413H388.86V124.566H145.664Z" fill="#383838"/>
</g>
<mask id="mask5_3_239" style="mask-type:luminance" maskUnits="userSpaceOnUse" x="145" y="124" width="230" height="163">
<path d="M251.723 124.851L243.74 125.136L234.047 126.562L231.195 126.847L227.204 127.987L225.493 128.272L218.366 129.983L215.515 131.123L214.659 131.409L209.527 133.119L208.672 133.689L206.676 134.26L205.251 134.83L204.395 135.4L196.698 139.106L195.557 139.391L194.417 140.247L193.847 140.532L192.421 141.102L192.136 141.387L190.71 142.243L190.425 142.528L189 143.383L188.715 143.668L187.289 144.238L187.004 144.523L185.578 145.379L185.293 145.664L183.868 146.234L183.583 146.804L182.727 147.089L182.157 147.66L181.587 148.23L180.732 148.8L180.161 149.085L179.876 149.37L179.021 149.94L178.451 150.511L177.595 150.796L177.025 151.651L176.17 151.936L175.6 152.506L175.03 152.792L174.174 153.647L173.604 153.932L172.178 155.357L171.323 155.643L168.187 158.779L167.617 159.064L164.481 162.2L163.91 162.485L162.77 163.626L162.485 164.481L159.064 167.902L158.493 168.472L155.642 171.609L155.072 172.179L153.647 173.604L153.361 174.46L152.791 175.03L152.506 175.885L151.651 176.455L151.366 177.026L150.795 177.881L150.225 178.451L149.655 179.306L149.37 179.877L148.8 180.162L148.515 181.017L147.944 181.587L147.659 182.443L146.804 183.013L146.519 183.868L146.234 184.153L145.949 184.723V185.579H146.234V186.149H146.519V186.719H146.804L147.089 187.289V187.86H147.659V188.715H147.944L148.23 189V189.57H148.515V190.426H148.8V190.996H149.37L149.655 191.281V192.136H149.94V192.706H150.225L150.795 192.991V193.847H151.081V194.417H151.366V195.272H151.651L151.936 195.557V196.128H152.506V196.983H152.791V197.553H153.076L153.361 197.838V198.694H153.647V199.264H154.217L154.502 199.549V200.404H154.787V200.974H155.072V201.83H155.642L155.927 202.115V202.685H156.212V203.54H156.498V204.111H156.783L157.353 204.396V205.251H157.638V205.821H157.923L158.208 206.106V206.962H158.493V207.532H159.064V208.387H159.349L159.634 208.672V209.243H159.919V210.098H160.489V210.668H160.774L161.059 210.953V211.809H161.344V212.379H161.63L162.2 212.949V213.519H162.485V214.089H162.77V214.945H163.055L163.34 215.23V215.8H163.91V216.655H164.195L164.481 216.94V217.796H164.766V218.366H165.336V218.936H165.621L165.906 219.506V220.077H166.191V220.647H166.476V221.502H167.047L167.332 221.787V222.643H167.617V223.213H167.902L168.187 223.498V224.353H168.757V224.923H169.042V225.494H169.327L169.612 226.064V226.634H170.183V227.489H170.468V228.06H170.753L171.038 228.345V229.2H171.323V229.77H171.893L172.178 230.055V230.911H172.464V231.481H172.749V232.336H173.034L173.604 232.621V233.191H173.889V234.047H174.174L174.459 234.332V234.902H175.03V235.757H175.315V236.328H175.6L175.885 236.613V237.468H176.17V238.038H176.74V238.894H177.025L177.31 239.179V239.749H177.595V240.604H177.881L178.451 240.889V241.46H178.736V242.315H179.021V242.885H179.306L179.876 243.17V244.026H180.161V244.596H180.447V245.451H180.732L181.017 245.736V246.306H181.587V247.162H181.872L182.157 247.447V248.017H182.442V248.872H182.727V249.443H183.298L183.583 249.728V250.583H183.868V251.153H184.153L184.723 251.723V252.294H185.008V252.864H185.293V253.719H185.578L185.864 254.004V254.574H186.434V255.43H186.719V256H187.004L187.289 256.57V257.14H187.574V257.711H188.144L188.43 258.281V258.851H188.715V259.421H189V260.277H189.57L189.855 260.562V261.132H190.14V261.987H190.425V262.557H190.71L191.281 263.128V263.698H191.566V264.268H191.851L192.136 264.838V265.409H192.421V265.979H192.991V266.834H193.276L193.561 267.119V267.974H193.847V268.545H194.417L194.702 268.83V269.685H194.987V270.255H195.272V270.826H195.557L196.127 271.396V271.966H196.412V272.821H196.698V273.391H196.983L197.268 273.677V274.532H197.838V275.102H198.123L198.408 275.387V276.243H198.693V276.813H199.264V277.668H199.549L199.834 277.953V278.523H200.119V279.379H200.404V279.949H200.974L201.259 280.234V281.089H201.544V281.66H201.83L202.115 281.945V282.8H202.685V283.37H202.97V284.226H203.255L203.54 284.511V285.081H204.11V285.936H204.395L204.966 286.221V285.936L206.106 283.655L206.391 283.37L206.961 281.945L207.532 281.66L208.387 279.664L208.672 279.379L209.812 277.098L210.098 276.813L210.953 275.387L211.238 275.102L212.378 273.106L212.664 272.821L213.234 271.396L213.519 270.826L214.659 268.83L214.944 268.545L216.085 266.549L216.37 265.979L217.225 264.838L217.51 264.268L218.366 262.272L218.936 261.987L219.506 260.562L219.791 260.277L220.932 258.281L221.217 257.711L222.357 255.715L222.642 255.43L223.212 254.004L223.783 253.719L224.638 251.723L225.208 251.153L225.778 249.728L226.064 249.443L227.204 247.447L227.489 247.162L228.63 244.881L228.915 244.596L229.485 243.17L230.055 242.885L230.91 240.889L231.195 240.604L232.051 239.179L232.336 238.894L233.476 236.613L233.761 236.328L234.902 234.332L235.187 234.047L235.757 232.621L236.042 232.336L237.183 230.055L237.468 229.77L238.323 228.345L238.608 228.06L239.749 226.064L240.034 225.494L240.889 223.498L241.459 223.213L242.03 221.787L242.315 221.502L243.455 219.506L243.74 218.936L244.595 217.796L244.881 217.226L245.736 215.23L246.306 214.945L247.161 212.949L247.447 212.379L248.302 210.953L248.587 210.668L249.727 208.672L250.012 208.387L250.583 206.962L251.153 206.677L252.008 204.396L252.293 204.111L253.434 202.115L253.719 201.83L254.574 200.404L254.859 200.119L256 197.838L256.285 197.553L256.57 196.983L256.855 196.413H374.319V195.843H374.034V195.272H373.464V194.417H373.178V193.847L372.893 193.562H372.608V192.706H372.323V192.136L371.753 191.566H371.468V190.996H371.183V190.426L370.898 189.855H370.327V189.285H370.042V188.715L369.757 188.145H369.472V187.574H369.187V186.719L368.617 186.434H368.332V185.864H368.047V185.008L367.761 184.723H367.476V184.153H366.906V183.298L366.621 183.013H366.336V182.443L365.481 181.587H365.195V181.017L364.625 180.162H364.34V179.591L363.485 179.021H363.2V178.166L362.629 177.596H362.059V176.74L361.774 176.455H361.489V175.885L360.634 175.03H360.349V174.46L359.778 173.604H359.493V173.034L357.212 171.038H356.927V170.183L354.647 167.902H354.076V167.047L351.795 164.766H351.51V163.911L349.8 162.2L348.944 161.915L345.808 158.779L345.238 158.494L342.387 155.643L341.817 155.357L340.391 153.932L339.536 153.647L338.966 152.792L338.395 152.506L337.54 151.936L336.97 151.651L336.115 150.796L335.544 150.511L334.689 149.94L334.119 149.37L333.549 148.8L332.693 148.515L332.123 147.66L331.268 147.374L330.983 147.089L330.412 146.804L329.842 146.234L329.272 145.949L328.987 145.664L326.706 144.523L326.421 144.238L324.995 143.668L324.71 143.383L323.285 142.528L323 142.243L321.574 141.387L321.289 141.102L319.864 140.532L319.578 140.247L317.583 139.106L316.442 138.821L308.744 134.83L307.889 134.545L307.034 134.26L303.898 133.119L303.327 132.834L297.055 130.838L296.485 130.553L295.344 129.983L293.919 129.698L292.208 129.413L283.94 127.417L282.229 126.847L274.817 125.991L272.251 125.706L269.685 125.136L261.987 124.851H251.723Z" fill="white"/>
</mask>
<g mask="url(#mask5_3_239)">
<path d="M124.566 388.289H250.298L308.744 330.128V286.506H204.395L124.566 149.37V388.289Z" fill="url(#paint5_radial_3_239)"/>
</g>
<mask id="mask6_3_239" style="mask-type:luminance" maskUnits="userSpaceOnUse" x="124" y="124" width="265" height="265">
<path d="M251.723 124.851L243.74 125.136L234.047 126.562L231.196 126.847L227.204 127.987L225.494 128.272L218.366 129.983L215.515 131.123L214.66 131.409L209.528 133.119L208.672 133.689L206.677 134.26L205.251 134.83L204.396 135.4L196.698 139.106L195.557 139.391L194.417 140.247L193.847 140.532L192.421 141.102L192.136 141.387L190.711 142.243L190.426 142.528L189 143.383L188.715 143.668L187.289 144.238L187.004 144.523L185.579 145.379L185.294 145.664L183.868 146.234L183.583 146.804L182.728 147.089L182.157 147.66L181.587 148.23L180.732 148.8L180.162 149.085L179.877 149.37L179.021 149.94L178.451 150.511L177.596 150.796L177.026 151.651L176.17 151.936L175.6 152.506L175.03 152.792L174.174 153.647L173.604 153.932L172.179 155.357L171.323 155.643L168.187 158.779L167.617 159.064L164.481 162.2L163.911 162.485L162.77 163.626L162.485 164.481L159.064 167.902L158.494 168.472L155.643 171.608L155.072 172.179L153.647 173.604L153.362 174.46L152.792 175.03L152.506 175.885L151.651 176.455L151.366 177.026L150.796 177.881L150.226 178.451L149.655 179.306L149.37 179.877L148.8 180.162L148.515 181.017L147.945 181.587L147.66 182.443L146.804 183.013L146.519 183.868L146.234 184.153L145.379 185.579L145.094 185.864L144.523 187.289L144.238 187.574L143.383 189L143.098 189.285L142.243 190.711L141.957 190.996L141.387 192.421L141.102 192.706L140.247 194.132L139.962 194.417L139.677 195.557L137.396 199.549L137.111 200.689L135.115 204.966L134.83 205.821L134.26 206.677L133.689 208.672L133.404 209.243L132.264 212.379L131.979 213.234L130.553 217.226L130.268 218.081L127.132 230.34L126.562 234.617L125.706 239.464L125.421 241.46L125.136 244.881L124.851 252.008V261.132H125.136V268.26H125.421V271.396H125.706V273.677H125.992V276.243H126.562V278.238H126.847V280.519H127.132V282.8H127.417V284.226H127.702V285.366H128.272V286.791H128.557V288.217H128.843V289.643H129.128V291.068H129.413V292.494H129.983V293.919H130.268V295.06H130.553V295.915H130.838V297.055H131.409V297.911H131.694V299.051H131.979V299.906H132.264V300.762H132.549V301.902H133.119V302.757H133.404V303.898H133.689V304.753H133.974V305.894H134.26V306.749H134.83V307.604H135.115V308.46H135.4V309.03H135.685V309.6H136.255V310.455H136.54V311.026H136.826V311.881H137.111V312.736H137.396V313.591H137.966V314.162H138.251V315.017H138.536V315.587H138.821V316.443H139.106V317.013H139.677V317.583H139.962V318.723H140.247L140.532 319.008V319.864H141.102V320.434H141.387L141.672 320.719V321.574H141.957V322.145H142.243L142.813 322.43V323.285H143.098V323.855H143.383L143.668 324.14V324.996H144.238V325.566H144.523L144.809 325.851V326.706H145.094V327.277H145.379L145.949 327.847V328.417H146.234V328.987H146.519L146.804 329.557V330.128H147.089L147.945 330.983V331.553H148.23L148.8 332.123V332.979H149.37L149.94 333.549V334.404H150.226L151.081 334.974V335.83H151.366L151.936 336.4V336.97H152.506L153.077 337.826V338.396H153.362L154.217 339.251V339.821H154.502L156.783 342.387V342.957H157.353L161.06 346.664V347.519H161.345L165.336 351.226L165.906 351.511L169.328 354.932L170.183 355.502L172.749 358.068L173.604 358.638L174.174 359.208L175.03 359.494L175.6 360.349L176.17 360.634L177.026 361.204L177.596 361.774L178.451 362.345L179.021 362.63L179.877 363.485L180.447 363.77L181.017 364.34L181.872 364.911L182.443 365.481L183.298 365.766L183.583 366.051L184.153 366.621L184.723 366.906L185.864 367.477L186.434 367.762L187.574 368.617L188.145 368.902L189.57 369.472L189.855 370.042L191.281 370.613L191.566 370.898L192.992 371.753L193.277 372.038L198.123 374.604L199.264 374.889L203.255 376.885L204.396 377.17L206.391 378.311L208.387 378.881L209.243 379.166L212.379 380.306L212.949 380.591L217.226 382.017L217.796 382.302L230.34 385.438L232.051 386.008L234.047 386.294L241.46 387.149L243.455 387.719L250.013 388.004L263.983 388.289V388.004L269.97 387.719L274.817 386.864L277.098 386.579L281.945 386.008L283.655 385.438L294.774 382.872L298.766 381.447L299.621 381.162L304.753 379.166L305.323 378.881L307.604 378.311L308.745 377.455L309.885 377.17L314.162 375.174L315.017 374.889L320.719 372.038L321.004 371.753L322.43 370.898L322.715 370.613L324.14 370.042L324.426 369.472L325.851 368.902L326.136 368.617L327.562 367.762L327.847 367.477L329.272 366.906L329.557 366.621L330.413 366.051L330.698 365.766L331.268 365.481L332.123 364.911L332.694 364.34L333.549 363.77L334.119 363.485L334.689 362.63L335.545 362.345L336.115 361.774L336.97 361.204L337.54 360.634L338.396 360.349L338.966 359.494L339.536 359.208L340.392 358.638L340.962 358.068L343.528 355.787L344.098 355.502L347.519 352.081L348.374 351.511L352.366 347.519L352.936 346.664L355.502 344.098L355.787 343.243L358.638 340.391L358.923 339.821L359.779 339.251L360.064 338.396L360.634 337.826L361.204 336.97L361.774 336.4L362.06 335.83L362.915 334.974L363.2 334.404L363.485 333.834L363.77 333.264L364.626 332.694L364.911 331.838L365.481 331.268L366.051 330.413L366.621 329.843L367.477 328.417L367.762 328.132L368.332 326.706L368.617 326.421L369.472 324.996L369.757 324.711L370.328 323.285L370.898 323L371.468 321.574L371.753 321.289L372.608 319.864L372.894 319.294L374.034 317.298L374.319 316.443L376.6 311.596L377.17 310.455L378.881 307.034L379.166 305.894L379.451 305.323L379.736 304.183L380.306 303.613L380.591 302.472L380.877 301.902L383.157 294.489L386.009 283.37L386.294 281.66L388.004 269.685L388.574 262.557L388.86 250.583H388.574V243.17H388.004V240.889H387.719V238.323H387.434V236.043H387.149V233.477H386.864V231.196H386.294V229.77H386.009V228.345H385.723V226.919H385.438V225.494H385.153V224.353H384.583V222.928H384.298V221.502H384.013V220.077H383.728V218.651H383.157V217.796H382.872V216.655H382.587V215.515H382.302V214.66H382.017V213.519H381.447V212.379H381.162V211.809H380.877V210.668H380.591V210.098H380.306V208.957H379.736V208.387H379.451V207.247H379.166V206.677H378.881V205.536H378.311V204.966H378.026V204.111H377.74V203.54H377.455V202.685H377.17V202.115H376.6V201.26H376.315V200.404H376.03V199.549H375.745V198.979H375.46V198.409H374.889V197.553H374.604V196.983H374.319V195.843H374.034V195.272H373.464V194.417H373.179V193.847L372.894 193.562H372.608V192.706H372.323V192.136L371.753 191.566H371.468V190.996H371.183V190.426L370.898 189.855H370.328V189.285H370.043V188.715L369.757 188.145H369.472V187.574H369.187V186.719L368.617 186.434H368.332V185.864H368.047V185.008L367.762 184.723H367.477V184.153H366.906V183.298L366.621 183.013H366.336V182.443L365.481 181.587H365.196V181.017L364.626 180.162H364.34V179.591L363.485 179.021H363.2V178.166L362.63 177.596H362.06V176.74L361.774 176.455H361.489V175.885L360.634 175.03H360.349V174.46L359.779 173.604H359.494V173.034L357.213 171.038H356.928V170.183L354.647 167.902H354.077V167.047L351.796 164.766H351.511V163.911L349.8 162.2L348.945 161.915L345.809 158.779L345.238 158.494L342.387 155.643L341.817 155.357L340.392 153.932L339.536 153.647L338.966 152.792L338.396 152.506L337.54 151.936L336.97 151.651L336.115 150.796L335.545 150.511L334.689 149.94L334.119 149.37L333.549 148.8L332.694 148.515L332.123 147.66L331.268 147.374L330.983 147.089L330.413 146.804L329.843 146.234L329.272 145.949L328.987 145.664L326.706 144.523L326.421 144.238L324.996 143.668L324.711 143.383L323.285 142.528L323 142.243L321.574 141.387L321.289 141.102L319.864 140.532L319.579 140.247L317.583 139.106L316.443 138.821L308.745 134.83L307.889 134.545L307.034 134.26L303.898 133.119L303.328 132.834L297.055 130.838L296.485 130.553L295.345 129.983L293.919 129.698L292.209 129.413L283.94 127.417L282.23 126.847L274.817 125.991L272.251 125.706L269.685 125.136L261.987 124.851H251.723Z" fill="white"/>
</mask>
<g mask="url(#mask6_3_239)">
<path d="M316.728 256.285C316.728 260.562 316.443 264.268 315.587 267.975C315.017 271.681 313.591 275.673 312.166 279.094C310.74 282.8 308.745 286.222 306.749 289.358C304.753 292.779 301.902 295.63 299.051 298.766C296.2 301.617 293.634 303.898 289.928 305.894C286.792 307.89 283.37 310.17 279.664 311.311C276.243 312.736 272.251 314.162 268.545 314.732C264.268 315.302 260.562 315.873 256.855 315.873C252.579 315.873 248.872 315.587 245.166 314.732C241.46 314.162 237.468 312.736 233.762 311.311C230.34 309.885 226.919 307.89 223.498 305.894C220.362 303.898 217.226 301.332 214.374 298.766C211.523 295.63 209.243 292.779 206.677 289.358C204.681 286.222 202.97 282.8 201.26 279.094C199.834 275.673 198.979 271.681 198.123 267.975C196.983 264.268 196.698 260.277 196.698 256.285C196.698 252.579 196.983 248.587 198.123 244.596C198.694 240.89 199.834 236.898 201.26 233.477C202.97 229.77 204.681 226.349 206.677 222.928C208.957 219.792 211.523 216.656 214.374 213.804C217.226 210.953 220.362 208.673 223.498 206.107C226.919 204.111 230.34 202.4 233.762 200.404C237.468 198.979 241.46 198.124 245.166 196.983C248.872 196.413 252.864 195.843 256.855 195.843C260.562 195.843 264.553 196.128 268.545 196.983C272.251 198.124 276.243 198.979 279.664 200.404C283.37 202.115 286.792 203.826 289.928 206.107C293.349 208.387 296.2 210.953 299.051 213.804C301.902 216.656 304.468 219.792 306.749 222.928C308.745 226.064 311.026 229.485 312.166 233.477C313.591 236.898 315.017 240.604 315.587 244.596C316.443 248.587 316.728 252.579 316.728 256.285Z" fill="#F1F1F1"/>
</g>
<mask id="mask7_3_239" style="mask-type:luminance" maskUnits="userSpaceOnUse" x="124" y="124" width="265" height="265">
<path d="M251.723 124.851L243.74 125.136L234.047 126.562L231.196 126.847L227.204 127.987L225.494 128.272L218.366 129.983L215.515 131.123L214.66 131.409L209.528 133.119L208.672 133.689L206.677 134.26L205.251 134.83L204.396 135.4L196.698 139.106L195.557 139.391L194.417 140.247L193.847 140.532L192.421 141.102L192.136 141.387L190.711 142.243L190.426 142.528L189 143.383L188.715 143.668L187.289 144.238L187.004 144.523L185.579 145.379L185.294 145.664L183.868 146.234L183.583 146.804L182.728 147.089L182.157 147.66L181.587 148.23L180.732 148.8L180.162 149.085L179.877 149.37L179.021 149.94L178.451 150.511L177.596 150.796L177.026 151.651L176.17 151.936L175.6 152.506L175.03 152.792L174.174 153.647L173.604 153.932L172.179 155.357L171.323 155.643L168.187 158.779L167.617 159.064L164.481 162.2L163.911 162.485L162.77 163.626L162.485 164.481L159.064 167.902L158.494 168.472L155.643 171.608L155.072 172.179L153.647 173.604L153.362 174.46L152.792 175.03L152.506 175.885L151.651 176.455L151.366 177.026L150.796 177.881L150.226 178.451L149.655 179.306L149.37 179.877L148.8 180.162L148.515 181.017L147.945 181.587L147.66 182.443L146.804 183.013L146.519 183.868L146.234 184.153L145.379 185.579L145.094 185.864L144.523 187.289L144.238 187.574L143.383 189L143.098 189.285L142.243 190.711L141.957 190.996L141.387 192.421L141.102 192.706L140.247 194.132L139.962 194.417L139.677 195.557L137.396 199.549L137.111 200.689L135.115 204.966L134.83 205.821L134.26 206.677L133.689 208.672L133.404 209.243L132.264 212.379L131.979 213.234L130.553 217.226L130.268 218.081L127.132 230.34L126.562 234.617L125.706 239.464L125.421 241.46L125.136 244.881L124.851 252.008V261.132H125.136V268.26H125.421V271.396H125.706V273.677H125.992V276.243H126.562V278.238H126.847V280.519H127.132V282.8H127.417V284.226H127.702V285.366H128.272V286.791H128.557V288.217H128.843V289.643H129.128V291.068H129.413V292.494H129.983V293.919H130.268V295.06H130.553V295.915H130.838V297.055H131.409V297.911H131.694V299.051H131.979V299.906H132.264V300.762H132.549V301.902H133.119V302.757H133.404V303.898H133.689V304.753H133.974V305.894H134.26V306.749H134.83V307.604H135.115V308.46H135.4V309.03H135.685V309.6H136.255V310.455H136.54V311.026H136.826V311.881H137.111V312.736H137.396V313.591H137.966V314.162H138.251V315.017H138.536V315.587H138.821V316.443H139.106V317.013H139.677V317.583H139.962V318.723H140.247L140.532 319.008V319.864H141.102V320.434H141.387L141.672 320.719V321.574H141.957V322.145H142.243L142.813 322.43V323.285H143.098V323.855H143.383L143.668 324.14V324.996H144.238V325.566H144.523L144.809 325.851V326.706H145.094V327.277H145.379L145.949 327.847V328.417H146.234V328.987H146.519L146.804 329.557V330.128H147.089L147.945 330.983V331.553H148.23L148.8 332.123V332.979H149.37L149.94 333.549V334.404H150.226L151.081 334.974V335.83H151.366L151.936 336.4V336.97H152.506L153.077 337.826V338.396H153.362L154.217 339.251V339.821H154.502L156.783 342.387V342.957H157.353L161.06 346.664V347.519H161.345L165.336 351.226L165.906 351.511L169.328 354.932L170.183 355.502L172.749 358.068L173.604 358.638L174.174 359.208L175.03 359.494L175.6 360.349L176.17 360.634L177.026 361.204L177.596 361.774L178.451 362.345L179.021 362.63L179.877 363.485L180.447 363.77L181.017 364.34L181.872 364.911L182.443 365.481L183.298 365.766L183.583 366.051L184.153 366.621L184.723 366.906L185.864 367.477L186.434 367.762L187.574 368.617L188.145 368.902L189.57 369.472L189.855 370.042L191.281 370.613L191.566 370.898L192.992 371.753L193.277 372.038L198.123 374.604L199.264 374.889L203.255 376.885L204.396 377.17L206.391 378.311L208.387 378.881L209.243 379.166L212.379 380.306L212.949 380.591L217.226 382.017L217.796 382.302L230.34 385.438L232.051 386.008L234.047 386.294L241.46 387.149L243.455 387.719L250.013 388.004L263.983 388.289V388.004L269.97 387.719L274.817 386.864L277.098 386.579L281.945 386.008L283.655 385.438L294.774 382.872L298.766 381.447L299.621 381.162L304.753 379.166L305.323 378.881L307.604 378.311L308.745 377.455L309.885 377.17L314.162 375.174L315.017 374.889L320.719 372.038L321.004 371.753L322.43 370.898L322.715 370.613L324.14 370.042L324.426 369.472L325.851 368.902L326.136 368.617L327.562 367.762L327.847 367.477L329.272 366.906L329.557 366.621L330.413 366.051L330.698 365.766L331.268 365.481L332.123 364.911L332.694 364.34L333.549 363.77L334.119 363.485L334.689 362.63L335.545 362.345L336.115 361.774L336.97 361.204L337.54 360.634L338.396 360.349L338.966 359.494L339.536 359.208L340.392 358.638L340.962 358.068L343.528 355.787L344.098 355.502L347.519 352.081L348.374 351.511L352.366 347.519L352.936 346.664L355.502 344.098L355.787 343.243L358.638 340.391L358.923 339.821L359.779 339.251L360.064 338.396L360.634 337.826L361.204 336.97L361.774 336.4L362.06 335.83L362.915 334.974L363.2 334.404L363.485 333.834L363.77 333.264L364.626 332.694L364.911 331.838L365.481 331.268L366.051 330.413L366.621 329.843L367.477 328.417L367.762 328.132L368.332 326.706L368.617 326.421L369.472 324.996L369.757 324.711L370.328 323.285L370.898 323L371.468 321.574L371.753 321.289L372.608 319.864L372.894 319.294L374.034 317.298L374.319 316.443L376.6 311.596L377.17 310.455L378.881 307.034L379.166 305.894L379.451 305.323L379.736 304.183L380.306 303.613L380.591 302.472L380.877 301.902L383.157 294.489L386.009 283.37L386.294 281.66L388.004 269.685L388.574 262.557L388.86 250.583H388.574V243.17H388.004V240.889H387.719V238.323H387.434V236.043H387.149V233.477H386.864V231.196H386.294V229.77H386.009V228.345H385.723V226.919H385.438V225.494H385.153V224.353H384.583V222.928H384.298V221.502H384.013V220.077H383.728V218.651H383.157V217.796H382.872V216.655H382.587V215.515H382.302V214.66H382.017V213.519H381.447V212.379H381.162V211.809H380.877V210.668H380.591V210.098H380.306V208.957H379.736V208.387H379.451V207.247H379.166V206.677H378.881V205.536H378.311V204.966H378.026V204.111H377.74V203.54H377.455V202.685H377.17V202.115H376.6V201.26H376.315V200.404H376.03V199.549H375.745V198.979H375.46V198.409H374.889V197.553H374.604V196.983H374.319V195.843H374.034V195.272H373.464V194.417H373.179V193.847L372.894 193.562H372.608V192.706H372.323V192.136L371.753 191.566H371.468V190.996H371.183V190.426L370.898 189.855H370.328V189.285H370.043V188.715L369.757 188.145H369.472V187.574H369.187V186.719L368.617 186.434H368.332V185.864H368.047V185.008L367.762 184.723H367.477V184.153H366.906V183.298L366.621 183.013H366.336V182.443L365.481 181.587H365.196V181.017L364.626 180.162H364.34V179.591L363.485 179.021H363.2V178.166L362.63 177.596H362.06V176.74L361.774 176.455H361.489V175.885L360.634 175.03H360.349V174.46L359.779 173.604H359.494V173.034L357.213 171.038H356.928V170.183L354.647 167.902H354.077V167.047L351.796 164.766H351.511V163.911L349.8 162.2L348.945 161.915L345.809 158.779L345.238 158.494L342.387 155.643L341.817 155.357L340.392 153.932L339.536 153.647L338.966 152.792L338.396 152.506L337.54 151.936L336.97 151.651L336.115 150.796L335.545 150.511L334.689 149.94L334.119 149.37L333.549 148.8L332.694 148.515L332.123 147.66L331.268 147.374L330.983 147.089L330.413 146.804L329.843 146.234L329.272 145.949L328.987 145.664L326.706 144.523L326.421 144.238L324.996 143.668L324.711 143.383L323.285 142.528L323 142.243L321.574 141.387L321.289 141.102L319.864 140.532L319.579 140.247L317.583 139.106L316.443 138.821L308.745 134.83L307.889 134.545L307.034 134.26L303.898 133.119L303.328 132.834L297.055 130.838L296.485 130.553L295.345 129.983L293.919 129.698L292.209 129.413L283.94 127.417L282.23 126.847L274.817 125.991L272.251 125.706L269.685 125.136L261.987 124.851H251.723Z" fill="white"/>
</mask>
<g mask="url(#mask7_3_239)">
<path d="M305.038 256.285C305.038 259.421 304.753 262.557 303.898 265.694C303.328 268.83 302.187 271.966 301.047 274.817C299.621 277.953 298.196 280.804 296.485 283.085C294.774 285.936 292.779 288.217 290.498 290.213C288.217 292.208 285.651 294.489 283.37 296.2C280.519 297.911 277.668 299.621 275.102 300.762C271.966 302.187 269.115 302.757 265.979 303.613C262.843 304.183 259.706 304.753 256.57 304.753C253.434 304.753 250.298 304.468 247.162 303.613C244.026 303.042 240.889 302.187 238.038 300.762C234.902 299.621 232.051 297.911 229.77 296.2C226.919 294.489 224.638 292.494 222.643 290.213C220.362 288.217 218.081 285.651 216.37 283.085C214.66 280.804 213.234 277.953 211.809 274.817C210.668 271.966 209.813 268.83 209.243 265.694C208.672 262.557 208.102 259.421 208.102 256.285C208.102 253.149 208.387 250.013 209.243 246.877C209.528 243.74 210.668 240.889 211.809 237.753C213.234 234.902 214.66 232.336 216.37 229.485C218.081 227.204 220.077 224.638 222.643 222.072C224.638 220.077 227.204 217.796 229.77 216.085C232.051 214.374 234.902 212.949 238.038 211.523C240.889 210.383 244.026 209.528 247.162 208.672C250.298 208.387 253.434 208.102 256.57 208.102C259.706 208.102 262.843 208.387 265.979 208.672C269.115 209.242 271.966 210.383 275.102 211.523C277.953 212.949 280.804 214.374 283.37 216.085C285.651 217.796 288.217 219.791 290.498 222.072C292.494 224.353 294.774 226.919 296.485 229.485C298.196 232.336 299.621 234.902 301.047 237.753C302.187 240.889 303.043 243.74 303.898 246.877C304.468 250.013 305.038 253.149 305.038 256.285Z" fill="url(#paint6_radial_3_239)"/>
</g>
<defs>
<filter id="filter0_dddiii_3_239" x="29" y="35" width="454" height="456" filterUnits="userSpaceOnUse" color-interpolation-filters="sRGB">
<feFlood flood-opacity="0" result="BackgroundImageFix"/>
<feColorMatrix in="SourceAlpha" type="matrix" values="0 0 0 0 0 0 0 0 0 0 0 0 0 0 0 0 0 0 127 0" result="hardAlpha"/>
<feOffset dy="8"/>
<feGaussianBlur stdDeviation="7"/>
<feComposite in2="hardAlpha" operator="out"/>
<feColorMatrix type="matrix" values="0 0 0 0 0 0 0 0 0 0 0 0 0 0 0 0 0 0 0.15 0"/>
<feBlend mode="normal" in2="BackgroundImageFix" result="effect1_dropShadow_3_239"/>
<feColorMatrix in="SourceAlpha" type="matrix" values="0 0 0 0 0 0 0 0 0 0 0 0 0 0 0 0 0 0 127 0" result="hardAlpha"/>
<feOffset dy="4"/>
<feGaussianBlur stdDeviation="4"/>
<feComposite in2="hardAlpha" operator="out"/>
<feColorMatrix type="matrix" values="0 0 0 0 0 0 0 0 0 0 0 0 0 0 0 0 0 0 0.1 0"/>
<feBlend mode="normal" in2="effect1_dropShadow_3_239" result="effect2_dropShadow_3_239"/>
<feColorMatrix in="SourceAlpha" type="matrix" values="0 0 0 0 0 0 0 0 0 0 0 0 0 0 0 0 0 0 127 0" result="hardAlpha"/>
<feOffset dy="1"/>
<feGaussianBlur stdDeviation="1"/>
<feComposite in2="hardAlpha" operator="out"/>
<feColorMatrix type="matrix" values="0 0 0 0 0 0 0 0 0 0 0 0 0 0 0 0 0 0 0.1 0"/>
<feBlend mode="normal" in2="effect2_dropShadow_3_239" result="effect3_dropShadow_3_239"/>
<feBlend mode="normal" in="SourceGraphic" in2="effect3_dropShadow_3_239" result="shape"/>
<feColorMatrix in="SourceAlpha" type="matrix" values="0 0 0 0 0 0 0 0 0 0 0 0 0 0 0 0 0 0 127 0" result="hardAlpha"/>
<feOffset dy="-6"/>
<feGaussianBlur stdDeviation="2"/>
<feComposite in2="hardAlpha" operator="arithmetic" k2="-1" k3="1"/>
<feColorMatrix type="matrix" values="0 0 0 0 0 0 0 0 0 0 0 0 0 0 0 0 0 0 0.08 0"/>
<feBlend mode="multiply" in2="shape" result="effect4_innerShadow_3_239"/>
<feColorMatrix in="SourceAlpha" type="matrix" values="0 0 0 0 0 0 0 0 0 0 0 0 0 0 0 0 0 0 127 0" result="hardAlpha"/>
<feOffset dy="-8"/>
<feGaussianBlur stdDeviation="9"/>
<feComposite in2="hardAlpha" operator="arithmetic" k2="-1" k3="1"/>
<feColorMatrix type="matrix" values="0 0 0 0 0 0 0 0 0 0 0 0 0 0 0 0 0 0 0.2 0"/>
<feBlend mode="multiply" in2="effect4_innerShadow_3_239" result="effect5_innerShadow_3_239"/>
<feColorMatrix in="SourceAlpha" type="matrix" values="0 0 0 0 0 0 0 0 0 0 0 0 0 0 0 0 0 0 127 0" result="hardAlpha"/>
<feMorphology radius="2" operator="erode" in="SourceAlpha" result="effect6_innerShadow_3_239"/>
<feOffset dy="4"/>
<feGaussianBlur stdDeviation="1.5"/>
<feComposite in2="hardAlpha" operator="arithmetic" k2="-1" k3="1"/>
<feColorMatrix type="matrix" values="0 0 0 0 1 0 0 0 0 1 0 0 0 0 1 0 0 0 0.4 0"/>
<feBlend mode="overlay" in2="effect5_innerShadow_3_239" result="effect6_innerShadow_3_239"/>
</filter>
<filter id="filter1_f_3_239" x="55.2454" y="-228.291" width="665.312" height="665.312" filterUnits="userSpaceOnUse" color-interpolation-filters="sRGB">
<feFlood flood-opacity="0" result="BackgroundImageFix"/>
<feBlend mode="normal" in="SourceGraphic" in2="BackgroundImageFix" result="shape"/>
<feGaussianBlur stdDeviation="83.2586" result="effect1_foregroundBlur_3_239"/>
</filter>
<filter id="filter2_f_3_239" x="-315.108" y="-316.346" width="813.594" height="813.594" filterUnits="userSpaceOnUse" color-interpolation-filters="sRGB">
<feFlood flood-opacity="0" result="BackgroundImageFix"/>
<feBlend mode="normal" in="SourceGraphic" in2="BackgroundImageFix" result="shape"/>
<feGaussianBlur stdDeviation="110" result="effect1_foregroundBlur_3_239"/>
</filter>
<filter id="filter3_f_3_239" x="-184.755" y="48.3852" width="607.132" height="607.132" filterUnits="userSpaceOnUse" color-interpolation-filters="sRGB">
<feFlood flood-opacity="0" result="BackgroundImageFix"/>
<feBlend mode="normal" in="SourceGraphic" in2="BackgroundImageFix" result="shape"/>
<feGaussianBlur stdDeviation="83.2586" result="effect1_foregroundBlur_3_239"/>
</filter>
<filter id="filter4_f_3_239" x="86.7714" y="-0.705612" width="633.786" height="633.786" filterUnits="userSpaceOnUse" color-interpolation-filters="sRGB">
<feFlood flood-opacity="0" result="BackgroundImageFix"/>
<feBlend mode="normal" in="SourceGraphic" in2="BackgroundImageFix" result="shape"/>
<feGaussianBlur stdDeviation="83.2586" result="effect1_foregroundBlur_3_239"/>
</filter>
<filter id="filter5_f_3_239" x="-231" y="18" width="993" height="993" filterUnits="userSpaceOnUse" color-interpolation-filters="sRGB">
<feFlood flood-opacity="0" result="BackgroundImageFix"/>
<feBlend mode="normal" in="SourceGraphic" in2="BackgroundImageFix" result="shape"/>
<feGaussianBlur stdDeviation="116" result="effect1_foregroundBlur_3_239"/>
</filter>
<filter id="filter6_d_3_239" x="99.7342" y="105.293" width="313.672" height="313.672" filterUnits="userSpaceOnUse" color-interpolation-filters="sRGB">
<feFlood flood-opacity="0" result="BackgroundImageFix"/>
<feColorMatrix in="SourceAlpha" type="matrix" values="0 0 0 0 0 0 0 0 0 0 0 0 0 0 0 0 0 0 127 0" result="hardAlpha"/>
<feOffset dy="5.55843"/>
<feGaussianBlur stdDeviation="5.55843"/>
<feComposite in2="hardAlpha" operator="out"/>
<feColorMatrix type="matrix" values="0 0 0 0 0.241667 0 0 0 0 0.241667 0 0 0 0 0.241667 0 0 0 1 0"/>
<feBlend mode="overlay" in2="BackgroundImageFix" result="effect1_dropShadow_3_239"/>
<feBlend mode="normal" in="SourceGraphic" in2="effect1_dropShadow_3_239" result="shape"/>
</filter>
<radialGradient id="paint0_radial_3_239" cx="0" cy="0" r="1" gradientUnits="userSpaceOnUse" gradientTransform="translate(256 43) rotate(90) scale(128.865)">
<stop stop-color="white"/>
<stop offset="1" stop-color="#494949" stop-opacity="0"/>
</radialGradient>
<linearGradient id="paint1_linear_3_239" x1="256.57" y1="124.851" x2="256.57" y2="388.289" gradientUnits="userSpaceOnUse">
<stop stop-color="white"/>
<stop offset="1" stop-color="#9F9F9F"/>
</linearGradient>
<radialGradient id="paint2_radial_3_239" cx="0" cy="0" r="1" gradientUnits="userSpaceOnUse" gradientTransform="translate(162.136 188.619) rotate(5.84151) scale(166.215 197.735)">
<stop stop-color="#FF6C5F"/>
<stop offset="0.759615" stop-color="#F15445"/>
</radialGradient>
<radialGradient id="paint3_radial_3_239" cx="0" cy="0" r="1" gradientUnits="userSpaceOnUse" gradientTransform="translate(135.62 211.611) rotate(58.856) scale(206.432 159.135)">
<stop stop-color="#3ED18B"/>
<stop offset="1" stop-color="#0C9E58"/>
</radialGradient>
<radialGradient id="paint4_radial_3_239" cx="0" cy="0" r="1" gradientUnits="userSpaceOnUse" gradientTransform="translate(282.673 356.649) rotate(-59.7197) scale(173.784 125.497)">
<stop stop-color="#FFD970"/>
<stop offset="1" stop-color="#FCC323"/>
</radialGradient>
<radialGradient id="paint5_radial_3_239" cx="0" cy="0" r="1" gradientUnits="userSpaceOnUse" gradientTransform="translate(124.566 237.798) rotate(58.5364) scale(176.431 136.008)">
<stop stop-color="#0C9E58"/>
<stop offset="1" stop-color="#0C9E58"/>
</radialGradient>
<radialGradient id="paint6_radial_3_239" cx="0" cy="0" r="1" gradientUnits="userSpaceOnUse" gradientTransform="translate(256.57 217.427) rotate(90) scale(87.3264 87.584)">
<stop stop-color="#6AA0F3"/>
<stop offset="1" stop-color="#327DF0"/>
</radialGradient>
<clipPath id="clip0_3_239">
<rect x="43" y="43" width="426" height="426" rx="112" fill="white"/>
</clipPath>
</defs>
</svg>
