<svg width="512" height="512" viewBox="0 0 512 512" fill="none" xmlns="http://www.w3.org/2000/svg">
<g filter="url(#filter0_dddiii_23_27)">
<g clip-path="url(#clip0_23_27)">
<rect x="43" y="43" width="426" height="426" rx="112" fill="black" fill-opacity="0.55" shape-rendering="crispEdges"/>
<g style="mix-blend-mode:lighten" filter="url(#filter1_f_23_27)">
<circle cx="387.901" cy="104.365" r="166.139" fill="#29A5FF" fill-opacity="0.2"/>
</g>
<g style="mix-blend-mode:lighten" filter="url(#filter2_f_23_27)">
<circle cx="91.6898" cy="90.4514" r="186.797" fill="#1F5EFF" fill-opacity="0.15"/>
</g>
<g style="mix-blend-mode:lighten" filter="url(#filter3_f_23_27)">
<circle cx="118.811" cy="351.951" r="137.049" fill="#52ACFF" fill-opacity="0.04"/>
</g>
<g style="mix-blend-mode:lighten" filter="url(#filter4_f_23_27)">
<circle cx="403.664" cy="316.187" r="150.376" fill="#57E1FF" fill-opacity="0.06"/>
</g>
<g style="mix-blend-mode:overlay" filter="url(#filter5_f_23_27)">
<circle cx="265.5" cy="514.5" r="264.5" fill="white" fill-opacity="0.05"/>
</g>
</g>
<rect x="45" y="45" width="422" height="422" rx="110" stroke="url(#paint0_radial_23_27)" stroke-opacity="0.4" stroke-width="4" style="mix-blend-mode:lighten" shape-rendering="crispEdges"/>
</g>
<g filter="url(#filter6_d_23_27)">
<path d="M256.189 195.229L308.372 228.26L255.902 261.752L203.936 228.582L256.189 195.229ZM121.935 192.85L177.877 228.26L121.912 263.982C119.902 265.265 118.683 267.484 118.679 269.869C118.674 272.254 119.885 274.478 121.89 275.769L187.138 317.763C187.466 317.974 187.807 318.155 188.158 318.306L186.813 319.165C184.798 320.45 183.579 322.675 183.579 325.065C183.579 327.455 184.798 329.68 186.813 330.965L252.06 372.613C254.357 374.079 257.296 374.079 259.593 372.613L324.84 330.965C326.854 329.68 328.074 327.455 328.074 325.065C328.074 322.675 326.854 320.45 324.84 319.165L323.631 318.393C324.048 318.229 324.453 318.024 324.84 317.777L390.087 276.13C392.102 274.844 393.321 272.619 393.321 270.229C393.321 267.84 392.102 265.615 390.087 264.329L334.084 228.582L390.087 192.835C392.102 191.55 393.321 189.325 393.321 186.935C393.321 184.545 392.102 182.32 390.087 181.035L324.84 139.387C322.538 137.918 319.592 137.922 317.293 139.396L256.163 178.624L194.692 139.387C192.395 137.921 189.457 137.921 187.16 139.387L121.912 181.035C119.894 182.323 118.674 184.554 118.679 186.948C118.683 189.343 119.912 191.569 121.935 192.85Z" stroke="url(#paint1_linear_23_27)" stroke-opacity="0.4" stroke-width="14" stroke-linejoin="round" style="mix-blend-mode:overlay" shape-rendering="crispEdges"/>
</g>
<path d="M256.173 186.935L190.926 228.582L256.173 270.229L190.926 311.877L125.679 269.882L190.926 228.235L125.679 186.935L190.926 145.288L256.173 186.935ZM190.579 325.065L255.826 283.418L321.074 325.065L255.826 366.712L190.579 325.065ZM256.173 269.882L321.421 228.235L256.173 186.935L321.074 145.288L386.321 186.935L321.074 228.582L386.321 270.229L321.074 311.877L256.173 269.882Z" fill="url(#paint2_linear_23_27)"/>
<defs>
<filter id="filter0_dddiii_23_27" x="29" y="35" width="454" height="456" filterUnits="userSpaceOnUse" color-interpolation-filters="sRGB">
<feFlood flood-opacity="0" result="BackgroundImageFix"/>
<feColorMatrix in="SourceAlpha" type="matrix" values="0 0 0 0 0 0 0 0 0 0 0 0 0 0 0 0 0 0 127 0" result="hardAlpha"/>
<feOffset dy="8"/>
<feGaussianBlur stdDeviation="7"/>
<feComposite in2="hardAlpha" operator="out"/>
<feColorMatrix type="matrix" values="0 0 0 0 0 0 0 0 0 0 0 0 0 0 0 0 0 0 0.15 0"/>
<feBlend mode="normal" in2="BackgroundImageFix" result="effect1_dropShadow_23_27"/>
<feColorMatrix in="SourceAlpha" type="matrix" values="0 0 0 0 0 0 0 0 0 0 0 0 0 0 0 0 0 0 127 0" result="hardAlpha"/>
<feOffset dy="4"/>
<feGaussianBlur stdDeviation="4"/>
<feComposite in2="hardAlpha" operator="out"/>
<feColorMatrix type="matrix" values="0 0 0 0 0 0 0 0 0 0 0 0 0 0 0 0 0 0 0.1 0"/>
<feBlend mode="normal" in2="effect1_dropShadow_23_27" result="effect2_dropShadow_23_27"/>
<feColorMatrix in="SourceAlpha" type="matrix" values="0 0 0 0 0 0 0 0 0 0 0 0 0 0 0 0 0 0 127 0" result="hardAlpha"/>
<feOffset dy="1"/>
<feGaussianBlur stdDeviation="1"/>
<feComposite in2="hardAlpha" operator="out"/>
<feColorMatrix type="matrix" values="0 0 0 0 0 0 0 0 0 0 0 0 0 0 0 0 0 0 0.1 0"/>
<feBlend mode="normal" in2="effect2_dropShadow_23_27" result="effect3_dropShadow_23_27"/>
<feBlend mode="normal" in="SourceGraphic" in2="effect3_dropShadow_23_27" result="shape"/>
<feColorMatrix in="SourceAlpha" type="matrix" values="0 0 0 0 0 0 0 0 0 0 0 0 0 0 0 0 0 0 127 0" result="hardAlpha"/>
<feOffset dy="-6"/>
<feGaussianBlur stdDeviation="2"/>
<feComposite in2="hardAlpha" operator="arithmetic" k2="-1" k3="1"/>
<feColorMatrix type="matrix" values="0 0 0 0 0 0 0 0 0 0 0 0 0 0 0 0 0 0 0.08 0"/>
<feBlend mode="multiply" in2="shape" result="effect4_innerShadow_23_27"/>
<feColorMatrix in="SourceAlpha" type="matrix" values="0 0 0 0 0 0 0 0 0 0 0 0 0 0 0 0 0 0 127 0" result="hardAlpha"/>
<feOffset dy="-8"/>
<feGaussianBlur stdDeviation="9"/>
<feComposite in2="hardAlpha" operator="arithmetic" k2="-1" k3="1"/>
<feColorMatrix type="matrix" values="0 0 0 0 0 0 0 0 0 0 0 0 0 0 0 0 0 0 0.2 0"/>
<feBlend mode="multiply" in2="effect4_innerShadow_23_27" result="effect5_innerShadow_23_27"/>
<feColorMatrix in="SourceAlpha" type="matrix" values="0 0 0 0 0 0 0 0 0 0 0 0 0 0 0 0 0 0 127 0" result="hardAlpha"/>
<feMorphology radius="2" operator="erode" in="SourceAlpha" result="effect6_innerShadow_23_27"/>
<feOffset dy="4"/>
<feGaussianBlur stdDeviation="1.5"/>
<feComposite in2="hardAlpha" operator="arithmetic" k2="-1" k3="1"/>
<feColorMatrix type="matrix" values="0 0 0 0 1 0 0 0 0 1 0 0 0 0 1 0 0 0 0.4 0"/>
<feBlend mode="overlay" in2="effect5_innerShadow_23_27" result="effect6_innerShadow_23_27"/>
</filter>
<filter id="filter1_f_23_27" x="55.2456" y="-228.291" width="665.312" height="665.312" filterUnits="userSpaceOnUse" color-interpolation-filters="sRGB">
<feFlood flood-opacity="0" result="BackgroundImageFix"/>
<feBlend mode="normal" in="SourceGraphic" in2="BackgroundImageFix" result="shape"/>
<feGaussianBlur stdDeviation="83.2586" result="effect1_foregroundBlur_23_27"/>
</filter>
<filter id="filter2_f_23_27" x="-315.107" y="-316.346" width="813.594" height="813.594" filterUnits="userSpaceOnUse" color-interpolation-filters="sRGB">
<feFlood flood-opacity="0" result="BackgroundImageFix"/>
<feBlend mode="normal" in="SourceGraphic" in2="BackgroundImageFix" result="shape"/>
<feGaussianBlur stdDeviation="110" result="effect1_foregroundBlur_23_27"/>
</filter>
<filter id="filter3_f_23_27" x="-184.754" y="48.3854" width="607.132" height="607.132" filterUnits="userSpaceOnUse" color-interpolation-filters="sRGB">
<feFlood flood-opacity="0" result="BackgroundImageFix"/>
<feBlend mode="normal" in="SourceGraphic" in2="BackgroundImageFix" result="shape"/>
<feGaussianBlur stdDeviation="83.2586" result="effect1_foregroundBlur_23_27"/>
</filter>
<filter id="filter4_f_23_27" x="86.7714" y="-0.705856" width="633.786" height="633.786" filterUnits="userSpaceOnUse" color-interpolation-filters="sRGB">
<feFlood flood-opacity="0" result="BackgroundImageFix"/>
<feBlend mode="normal" in="SourceGraphic" in2="BackgroundImageFix" result="shape"/>
<feGaussianBlur stdDeviation="83.2586" result="effect1_foregroundBlur_23_27"/>
</filter>
<filter id="filter5_f_23_27" x="-231" y="18" width="993" height="993" filterUnits="userSpaceOnUse" color-interpolation-filters="sRGB">
<feFlood flood-opacity="0" result="BackgroundImageFix"/>
<feBlend mode="normal" in="SourceGraphic" in2="BackgroundImageFix" result="shape"/>
<feGaussianBlur stdDeviation="116" result="effect1_foregroundBlur_23_27"/>
</filter>
<filter id="filter6_d_23_27" x="100.562" y="125.729" width="310.876" height="271.658" filterUnits="userSpaceOnUse" color-interpolation-filters="sRGB">
<feFlood flood-opacity="0" result="BackgroundImageFix"/>
<feColorMatrix in="SourceAlpha" type="matrix" values="0 0 0 0 0 0 0 0 0 0 0 0 0 0 0 0 0 0 127 0" result="hardAlpha"/>
<feOffset dy="5.55843"/>
<feGaussianBlur stdDeviation="5.55843"/>
<feComposite in2="hardAlpha" operator="out"/>
<feColorMatrix type="matrix" values="0 0 0 0 0.241667 0 0 0 0 0.241667 0 0 0 0 0.241667 0 0 0 1 0"/>
<feBlend mode="overlay" in2="BackgroundImageFix" result="effect1_dropShadow_23_27"/>
<feBlend mode="normal" in="SourceGraphic" in2="effect1_dropShadow_23_27" result="shape"/>
</filter>
<radialGradient id="paint0_radial_23_27" cx="0" cy="0" r="1" gradientUnits="userSpaceOnUse" gradientTransform="translate(256 43) rotate(90) scale(128.865)">
<stop stop-color="white"/>
<stop offset="1" stop-color="#494949" stop-opacity="0"/>
</radialGradient>
<linearGradient id="paint1_linear_23_27" x1="256" y1="145.288" x2="256" y2="366.712" gradientUnits="userSpaceOnUse">
<stop stop-color="white"/>
<stop offset="1" stop-color="#9F9F9F"/>
</linearGradient>
<linearGradient id="paint2_linear_23_27" x1="256" y1="145.288" x2="256" y2="366.712" gradientUnits="userSpaceOnUse">
<stop stop-color="#50B5FF"/>
<stop offset="0.559316" stop-color="#237BFF"/>
<stop offset="1" stop-color="#126BFC"/>
</linearGradient>
<clipPath id="clip0_23_27">
<rect x="43" y="43" width="426" height="426" rx="112" fill="white"/>
</clipPath>
</defs>
</svg>
