<svg width="512" height="512" viewBox="0 0 512 512" fill="none" xmlns="http://www.w3.org/2000/svg">
<g filter="url(#filter0_dddiii_2_76)">
<g clip-path="url(#clip0_2_76)">
<rect x="43" y="43" width="426" height="426" rx="112" fill="black" fill-opacity="0.55" shape-rendering="crispEdges"/>
<g style="mix-blend-mode:lighten" filter="url(#filter1_f_2_76)">
<circle cx="387.901" cy="104.365" r="166.139" fill="#FF1D45" fill-opacity="0.15"/>
</g>
<g style="mix-blend-mode:lighten" filter="url(#filter2_f_2_76)">
<circle cx="91.6896" cy="90.4514" r="186.797" fill="#C059FF" fill-opacity="0.1"/>
</g>
<g style="mix-blend-mode:lighten" filter="url(#filter3_f_2_76)">
<circle cx="118.811" cy="351.951" r="137.049" fill="#4642FF" fill-opacity="0.08"/>
</g>
<g style="mix-blend-mode:lighten" filter="url(#filter4_f_2_76)">
<circle cx="403.664" cy="296.187" r="150.376" fill="#0AB7CF" fill-opacity="0.08"/>
</g>
<g style="mix-blend-mode:overlay" filter="url(#filter5_f_2_76)">
<circle cx="265.5" cy="514.5" r="264.5" fill="white" fill-opacity="0.05"/>
</g>
</g>
<rect x="45" y="45" width="422" height="422" rx="110" stroke="url(#paint0_radial_2_76)" stroke-opacity="0.4" stroke-width="4" style="mix-blend-mode:lighten" shape-rendering="crispEdges"/>
</g>
<g filter="url(#filter6_d_2_76)">
<path d="M263 301.193V294.193V291.653C272.501 301.829 286.034 308.193 301.045 308.193C329.775 308.193 353.09 284.879 353.09 256.148C353.09 236.917 342.644 220.113 327.121 211.103C342.644 202.093 353.09 185.289 353.09 166.059C353.09 137.328 329.775 114.014 301.045 114.014H263H256H249H210.955C182.225 114.014 158.911 137.328 158.911 166.059C158.911 185.289 169.356 202.093 184.879 211.103C169.356 220.113 158.911 236.917 158.911 256.148C158.911 275.379 169.356 292.183 184.879 301.193C169.356 310.203 158.911 327.007 158.911 346.238C158.911 374.968 182.225 398.282 210.955 398.282C239.686 398.282 263 374.968 263 346.238V308.193V301.193ZM263 220.644V218.103H265.54C264.665 218.921 263.817 219.768 263 220.644Z" stroke="url(#paint1_linear_2_76)" stroke-opacity="0.4" stroke-width="14" style="mix-blend-mode:overlay" shape-rendering="crispEdges"/>
</g>
<g clip-path="url(#clip1_2_76)">
<path d="M211.063 391.417C235.927 391.417 256.108 371.237 256.108 346.372V301.327H211.063C186.198 301.327 166.018 321.507 166.018 346.372C166.018 371.237 186.198 391.417 211.063 391.417Z" fill="url(#paint2_radial_2_76)"/>
<path d="M166.018 256.282C166.018 231.418 186.198 211.238 211.063 211.238H256.108V301.327H211.063C186.198 301.327 166.018 281.147 166.018 256.282Z" fill="url(#paint3_radial_2_76)"/>
<path d="M166.018 166.193C166.018 141.328 186.198 121.148 211.063 121.148H256.108V211.238H211.063C186.198 211.238 166.018 191.058 166.018 166.193Z" fill="url(#paint4_radial_2_76)"/>
<path d="M256.108 121.148H301.152C326.017 121.148 346.197 141.328 346.197 166.193C346.197 191.058 326.017 211.238 301.152 211.238H256.108V121.148Z" fill="url(#paint5_radial_2_76)"/>
<path d="M346.197 256.282C346.197 281.147 326.017 301.327 301.152 301.327C276.288 301.327 256.108 281.147 256.108 256.282C256.108 231.418 276.288 211.238 301.152 211.238C326.017 211.238 346.197 231.418 346.197 256.282Z" fill="url(#paint6_radial_2_76)"/>
</g>
<defs>
<filter id="filter0_dddiii_2_76" x="29" y="35" width="454" height="456" filterUnits="userSpaceOnUse" color-interpolation-filters="sRGB">
<feFlood flood-opacity="0" result="BackgroundImageFix"/>
<feColorMatrix in="SourceAlpha" type="matrix" values="0 0 0 0 0 0 0 0 0 0 0 0 0 0 0 0 0 0 127 0" result="hardAlpha"/>
<feOffset dy="8"/>
<feGaussianBlur stdDeviation="7"/>
<feComposite in2="hardAlpha" operator="out"/>
<feColorMatrix type="matrix" values="0 0 0 0 0 0 0 0 0 0 0 0 0 0 0 0 0 0 0.15 0"/>
<feBlend mode="normal" in2="BackgroundImageFix" result="effect1_dropShadow_2_76"/>
<feColorMatrix in="SourceAlpha" type="matrix" values="0 0 0 0 0 0 0 0 0 0 0 0 0 0 0 0 0 0 127 0" result="hardAlpha"/>
<feOffset dy="4"/>
<feGaussianBlur stdDeviation="4"/>
<feComposite in2="hardAlpha" operator="out"/>
<feColorMatrix type="matrix" values="0 0 0 0 0 0 0 0 0 0 0 0 0 0 0 0 0 0 0.1 0"/>
<feBlend mode="normal" in2="effect1_dropShadow_2_76" result="effect2_dropShadow_2_76"/>
<feColorMatrix in="SourceAlpha" type="matrix" values="0 0 0 0 0 0 0 0 0 0 0 0 0 0 0 0 0 0 127 0" result="hardAlpha"/>
<feOffset dy="1"/>
<feGaussianBlur stdDeviation="1"/>
<feComposite in2="hardAlpha" operator="out"/>
<feColorMatrix type="matrix" values="0 0 0 0 0 0 0 0 0 0 0 0 0 0 0 0 0 0 0.1 0"/>
<feBlend mode="normal" in2="effect2_dropShadow_2_76" result="effect3_dropShadow_2_76"/>
<feBlend mode="normal" in="SourceGraphic" in2="effect3_dropShadow_2_76" result="shape"/>
<feColorMatrix in="SourceAlpha" type="matrix" values="0 0 0 0 0 0 0 0 0 0 0 0 0 0 0 0 0 0 127 0" result="hardAlpha"/>
<feOffset dy="-6"/>
<feGaussianBlur stdDeviation="2"/>
<feComposite in2="hardAlpha" operator="arithmetic" k2="-1" k3="1"/>
<feColorMatrix type="matrix" values="0 0 0 0 0 0 0 0 0 0 0 0 0 0 0 0 0 0 0.08 0"/>
<feBlend mode="multiply" in2="shape" result="effect4_innerShadow_2_76"/>
<feColorMatrix in="SourceAlpha" type="matrix" values="0 0 0 0 0 0 0 0 0 0 0 0 0 0 0 0 0 0 127 0" result="hardAlpha"/>
<feOffset dy="-8"/>
<feGaussianBlur stdDeviation="9"/>
<feComposite in2="hardAlpha" operator="arithmetic" k2="-1" k3="1"/>
<feColorMatrix type="matrix" values="0 0 0 0 0 0 0 0 0 0 0 0 0 0 0 0 0 0 0.2 0"/>
<feBlend mode="multiply" in2="effect4_innerShadow_2_76" result="effect5_innerShadow_2_76"/>
<feColorMatrix in="SourceAlpha" type="matrix" values="0 0 0 0 0 0 0 0 0 0 0 0 0 0 0 0 0 0 127 0" result="hardAlpha"/>
<feMorphology radius="2" operator="erode" in="SourceAlpha" result="effect6_innerShadow_2_76"/>
<feOffset dy="4"/>
<feGaussianBlur stdDeviation="1.5"/>
<feComposite in2="hardAlpha" operator="arithmetic" k2="-1" k3="1"/>
<feColorMatrix type="matrix" values="0 0 0 0 1 0 0 0 0 1 0 0 0 0 1 0 0 0 0.4 0"/>
<feBlend mode="overlay" in2="effect5_innerShadow_2_76" result="effect6_innerShadow_2_76"/>
</filter>
<filter id="filter1_f_2_76" x="55.2454" y="-228.291" width="665.312" height="665.312" filterUnits="userSpaceOnUse" color-interpolation-filters="sRGB">
<feFlood flood-opacity="0" result="BackgroundImageFix"/>
<feBlend mode="normal" in="SourceGraphic" in2="BackgroundImageFix" result="shape"/>
<feGaussianBlur stdDeviation="83.2586" result="effect1_foregroundBlur_2_76"/>
</filter>
<filter id="filter2_f_2_76" x="-315.108" y="-316.346" width="813.594" height="813.594" filterUnits="userSpaceOnUse" color-interpolation-filters="sRGB">
<feFlood flood-opacity="0" result="BackgroundImageFix"/>
<feBlend mode="normal" in="SourceGraphic" in2="BackgroundImageFix" result="shape"/>
<feGaussianBlur stdDeviation="110" result="effect1_foregroundBlur_2_76"/>
</filter>
<filter id="filter3_f_2_76" x="-184.755" y="48.3854" width="607.132" height="607.132" filterUnits="userSpaceOnUse" color-interpolation-filters="sRGB">
<feFlood flood-opacity="0" result="BackgroundImageFix"/>
<feBlend mode="normal" in="SourceGraphic" in2="BackgroundImageFix" result="shape"/>
<feGaussianBlur stdDeviation="83.2586" result="effect1_foregroundBlur_2_76"/>
</filter>
<filter id="filter4_f_2_76" x="86.7714" y="-20.7059" width="633.786" height="633.786" filterUnits="userSpaceOnUse" color-interpolation-filters="sRGB">
<feFlood flood-opacity="0" result="BackgroundImageFix"/>
<feBlend mode="normal" in="SourceGraphic" in2="BackgroundImageFix" result="shape"/>
<feGaussianBlur stdDeviation="83.2586" result="effect1_foregroundBlur_2_76"/>
</filter>
<filter id="filter5_f_2_76" x="-231" y="18" width="993" height="993" filterUnits="userSpaceOnUse" color-interpolation-filters="sRGB">
<feFlood flood-opacity="0" result="BackgroundImageFix"/>
<feBlend mode="normal" in="SourceGraphic" in2="BackgroundImageFix" result="shape"/>
<feGaussianBlur stdDeviation="116" result="effect1_foregroundBlur_2_76"/>
</filter>
<filter id="filter6_d_2_76" x="140.794" y="101.455" width="230.413" height="320.502" filterUnits="userSpaceOnUse" color-interpolation-filters="sRGB">
<feFlood flood-opacity="0" result="BackgroundImageFix"/>
<feColorMatrix in="SourceAlpha" type="matrix" values="0 0 0 0 0 0 0 0 0 0 0 0 0 0 0 0 0 0 127 0" result="hardAlpha"/>
<feOffset dy="5.55843"/>
<feGaussianBlur stdDeviation="5.55843"/>
<feComposite in2="hardAlpha" operator="out"/>
<feColorMatrix type="matrix" values="0 0 0 0 0.241667 0 0 0 0 0.241667 0 0 0 0 0.241667 0 0 0 1 0"/>
<feBlend mode="overlay" in2="BackgroundImageFix" result="effect1_dropShadow_2_76"/>
<feBlend mode="normal" in="SourceGraphic" in2="effect1_dropShadow_2_76" result="shape"/>
</filter>
<radialGradient id="paint0_radial_2_76" cx="0" cy="0" r="1" gradientUnits="userSpaceOnUse" gradientTransform="translate(256 43) rotate(90) scale(128.865)">
<stop stop-color="white"/>
<stop offset="1" stop-color="#494949" stop-opacity="0"/>
</radialGradient>
<linearGradient id="paint1_linear_2_76" x1="256" y1="121.014" x2="256" y2="391.282" gradientUnits="userSpaceOnUse">
<stop stop-color="white"/>
<stop offset="1" stop-color="#9F9F9F"/>
</linearGradient>
<radialGradient id="paint2_radial_2_76" cx="0" cy="0" r="1" gradientUnits="userSpaceOnUse" gradientTransform="translate(177.662 318.057) rotate(50.5962) scale(94.9409 94.9409)">
<stop stop-color="#9EFFDA"/>
<stop offset="0.741785" stop-color="#24FEAA"/>
</radialGradient>
<radialGradient id="paint3_radial_2_76" cx="0" cy="0" r="1" gradientUnits="userSpaceOnUse" gradientTransform="translate(173.225 225.686) rotate(43.5597) scale(114.375)">
<stop stop-color="#CEA8FF"/>
<stop offset="0.799304" stop-color="#9452FF"/>
</radialGradient>
<radialGradient id="paint4_radial_2_76" cx="0" cy="0" r="1" gradientUnits="userSpaceOnUse" gradientTransform="translate(180.743 132.012) rotate(54.4156) scale(97.4174 97.4174)">
<stop stop-color="#FFA98F"/>
<stop offset="1" stop-color="#FF6639"/>
</radialGradient>
<radialGradient id="paint5_radial_2_76" cx="0" cy="0" r="1" gradientUnits="userSpaceOnUse" gradientTransform="translate(207.373 128.458) rotate(41.4351) scale(125.088 125.088)">
<stop stop-color="#FFC0B9"/>
<stop offset="1" stop-color="#FF8274"/>
</radialGradient>
<radialGradient id="paint6_radial_2_76" cx="0" cy="0" r="1" gradientUnits="userSpaceOnUse" gradientTransform="translate(270.314 225.996) rotate(51.6544) scale(77.1094 63.3841)">
<stop stop-color="#A9E6FF"/>
<stop offset="1" stop-color="#33C4FF"/>
</radialGradient>
<clipPath id="clip0_2_76">
<rect x="43" y="43" width="426" height="426" rx="112" fill="white"/>
</clipPath>
<clipPath id="clip1_2_76">
<rect width="270" height="270" fill="white" transform="translate(121 121.148)"/>
</clipPath>
</defs>
</svg>
