<svg width="512" height="512" viewBox="0 0 512 512" fill="none" xmlns="http://www.w3.org/2000/svg">
<g filter="url(#filter0_dddiii_10_1056)">
<g clip-path="url(#clip0_10_1056)">
<rect x="43" y="43" width="426" height="426" rx="112" fill="white" fill-opacity="0.55" shape-rendering="crispEdges"/>
<g style="mix-blend-mode:overlay" filter="url(#filter1_f_10_1056)">
<circle cx="387.901" cy="104.365" r="166.139" fill="#2481FC" fill-opacity="0.6"/>
</g>
<g style="mix-blend-mode:overlay" filter="url(#filter2_f_10_1056)">
<circle cx="91.6897" cy="90.4514" r="186.797" fill="#2C27FF" fill-opacity="0.5"/>
</g>
<g style="mix-blend-mode:overlay" filter="url(#filter3_f_10_1056)">
<circle cx="118.811" cy="351.951" r="137.049" fill="#0094FF" fill-opacity="0.4"/>
</g>
<g style="mix-blend-mode:overlay" filter="url(#filter4_f_10_1056)">
<circle cx="403.664" cy="316.187" r="150.376" fill="#6C5FFF" fill-opacity="0.5"/>
</g>
<g style="mix-blend-mode:overlay" filter="url(#filter5_f_10_1056)">
<circle cx="265.5" cy="514.5" r="264.5" fill="white" fill-opacity="0.6"/>
</g>
</g>
</g>
<g filter="url(#filter6_d_10_1056)">
<path d="M388.878 160.42C388.878 160.388 388.878 160.356 388.877 160.324C388.877 160.299 388.876 160.274 388.876 160.249C388.382 139.98 371.622 123.623 351.679 123.623H159.919C139.544 123.623 123.122 140.045 123.122 160.42V351.777C123.122 361.708 127.096 371.133 134.031 378.068C140.966 385.003 150.391 388.976 160.321 388.976H351.679C361.609 388.976 371.034 385.003 377.969 378.068C384.904 371.133 388.878 361.708 388.878 351.777V160.42ZM231.491 311.491C231.491 312.136 231.257 312.95 230.471 314.026C230.048 314.369 229.506 314.578 228.404 314.578H186.507C184.725 314.578 183.421 313.273 183.421 311.491V187.008C183.421 185.226 184.725 183.922 186.507 183.922H228.404C230.187 183.922 231.491 185.226 231.491 187.008V311.491ZM328.176 254.286C328.176 254.931 327.943 255.744 327.157 256.821C326.734 257.163 326.191 257.372 325.09 257.372H283.193C281.411 257.372 280.107 256.068 280.107 254.286V187.008C280.107 185.226 281.411 183.922 283.193 183.922H325.09C326.872 183.922 328.176 185.226 328.176 187.008V254.286Z" stroke="url(#paint0_linear_10_1056)" stroke-opacity="0.5" stroke-width="13.9701" stroke-linejoin="round" style="mix-blend-mode:overlay" shape-rendering="crispEdges"/>
</g>
<path fill-rule="evenodd" clip-rule="evenodd" d="M352.686 131.414H160.926C144.409 131.414 131.114 144.708 131.114 161.225V352.583C131.114 360.64 134.337 368.294 139.977 373.934C145.617 379.574 153.271 382.797 161.329 382.797H352.686C360.743 382.797 368.397 379.574 374.037 373.934C379.677 368.294 382.9 360.64 382.9 352.583V161.225C382.497 144.708 368.8 131.414 352.686 131.414ZM239.483 312.297C239.483 315.117 238.274 317.534 236.663 319.548C234.649 321.563 232.231 322.368 229.411 322.368H187.514C181.874 322.368 177.443 317.937 177.443 312.297V187.814C177.443 182.174 181.874 177.743 187.514 177.743H229.411C235.051 177.743 239.483 182.174 239.483 187.814V312.297ZM336.169 255.091C336.169 257.911 334.96 260.328 333.349 262.343C331.334 264.357 328.917 265.163 326.097 265.163H284.2C278.56 265.163 274.129 260.731 274.129 255.091V187.814C274.129 182.174 278.56 177.743 284.2 177.743H326.097C331.737 177.743 336.169 182.174 336.169 187.814V255.091Z" fill="url(#paint1_linear_10_1056)"/>
<defs>
<filter id="filter0_dddiii_10_1056" x="29" y="35" width="454" height="456" filterUnits="userSpaceOnUse" color-interpolation-filters="sRGB">
<feFlood flood-opacity="0" result="BackgroundImageFix"/>
<feColorMatrix in="SourceAlpha" type="matrix" values="0 0 0 0 0 0 0 0 0 0 0 0 0 0 0 0 0 0 127 0" result="hardAlpha"/>
<feOffset dy="8"/>
<feGaussianBlur stdDeviation="7"/>
<feComposite in2="hardAlpha" operator="out"/>
<feColorMatrix type="matrix" values="0 0 0 0 0 0 0 0 0 0 0 0 0 0 0 0 0 0 0.15 0"/>
<feBlend mode="normal" in2="BackgroundImageFix" result="effect1_dropShadow_10_1056"/>
<feColorMatrix in="SourceAlpha" type="matrix" values="0 0 0 0 0 0 0 0 0 0 0 0 0 0 0 0 0 0 127 0" result="hardAlpha"/>
<feOffset dy="4"/>
<feGaussianBlur stdDeviation="4"/>
<feComposite in2="hardAlpha" operator="out"/>
<feColorMatrix type="matrix" values="0 0 0 0 0 0 0 0 0 0 0 0 0 0 0 0 0 0 0.1 0"/>
<feBlend mode="normal" in2="effect1_dropShadow_10_1056" result="effect2_dropShadow_10_1056"/>
<feColorMatrix in="SourceAlpha" type="matrix" values="0 0 0 0 0 0 0 0 0 0 0 0 0 0 0 0 0 0 127 0" result="hardAlpha"/>
<feOffset dy="1"/>
<feGaussianBlur stdDeviation="1"/>
<feComposite in2="hardAlpha" operator="out"/>
<feColorMatrix type="matrix" values="0 0 0 0 0 0 0 0 0 0 0 0 0 0 0 0 0 0 0.1 0"/>
<feBlend mode="normal" in2="effect2_dropShadow_10_1056" result="effect3_dropShadow_10_1056"/>
<feBlend mode="normal" in="SourceGraphic" in2="effect3_dropShadow_10_1056" result="shape"/>
<feColorMatrix in="SourceAlpha" type="matrix" values="0 0 0 0 0 0 0 0 0 0 0 0 0 0 0 0 0 0 127 0" result="hardAlpha"/>
<feOffset dy="-6"/>
<feGaussianBlur stdDeviation="2"/>
<feComposite in2="hardAlpha" operator="arithmetic" k2="-1" k3="1"/>
<feColorMatrix type="matrix" values="0 0 0 0 0 0 0 0 0 0 0 0 0 0 0 0 0 0 0.08 0"/>
<feBlend mode="multiply" in2="shape" result="effect4_innerShadow_10_1056"/>
<feColorMatrix in="SourceAlpha" type="matrix" values="0 0 0 0 0 0 0 0 0 0 0 0 0 0 0 0 0 0 127 0" result="hardAlpha"/>
<feOffset dy="-8"/>
<feGaussianBlur stdDeviation="9"/>
<feComposite in2="hardAlpha" operator="arithmetic" k2="-1" k3="1"/>
<feColorMatrix type="matrix" values="0 0 0 0 0 0 0 0 0 0 0 0 0 0 0 0 0 0 0.2 0"/>
<feBlend mode="multiply" in2="effect4_innerShadow_10_1056" result="effect5_innerShadow_10_1056"/>
<feColorMatrix in="SourceAlpha" type="matrix" values="0 0 0 0 0 0 0 0 0 0 0 0 0 0 0 0 0 0 127 0" result="hardAlpha"/>
<feMorphology radius="2" operator="erode" in="SourceAlpha" result="effect6_innerShadow_10_1056"/>
<feOffset dy="3"/>
<feGaussianBlur stdDeviation="1.5"/>
<feComposite in2="hardAlpha" operator="arithmetic" k2="-1" k3="1"/>
<feColorMatrix type="matrix" values="0 0 0 0 1 0 0 0 0 1 0 0 0 0 1 0 0 0 0.65 0"/>
<feBlend mode="overlay" in2="effect5_innerShadow_10_1056" result="effect6_innerShadow_10_1056"/>
</filter>
<filter id="filter1_f_10_1056" x="55.2453" y="-228.291" width="665.312" height="665.312" filterUnits="userSpaceOnUse" color-interpolation-filters="sRGB">
<feFlood flood-opacity="0" result="BackgroundImageFix"/>
<feBlend mode="normal" in="SourceGraphic" in2="BackgroundImageFix" result="shape"/>
<feGaussianBlur stdDeviation="83.2586" result="effect1_foregroundBlur_10_1056"/>
</filter>
<filter id="filter2_f_10_1056" x="-315.108" y="-316.346" width="813.594" height="813.594" filterUnits="userSpaceOnUse" color-interpolation-filters="sRGB">
<feFlood flood-opacity="0" result="BackgroundImageFix"/>
<feBlend mode="normal" in="SourceGraphic" in2="BackgroundImageFix" result="shape"/>
<feGaussianBlur stdDeviation="110" result="effect1_foregroundBlur_10_1056"/>
</filter>
<filter id="filter3_f_10_1056" x="-184.755" y="48.3855" width="607.132" height="607.132" filterUnits="userSpaceOnUse" color-interpolation-filters="sRGB">
<feFlood flood-opacity="0" result="BackgroundImageFix"/>
<feBlend mode="normal" in="SourceGraphic" in2="BackgroundImageFix" result="shape"/>
<feGaussianBlur stdDeviation="83.2586" result="effect1_foregroundBlur_10_1056"/>
</filter>
<filter id="filter4_f_10_1056" x="86.7714" y="-0.705856" width="633.786" height="633.786" filterUnits="userSpaceOnUse" color-interpolation-filters="sRGB">
<feFlood flood-opacity="0" result="BackgroundImageFix"/>
<feBlend mode="normal" in="SourceGraphic" in2="BackgroundImageFix" result="shape"/>
<feGaussianBlur stdDeviation="83.2586" result="effect1_foregroundBlur_10_1056"/>
</filter>
<filter id="filter5_f_10_1056" x="-231" y="18" width="993" height="993" filterUnits="userSpaceOnUse" color-interpolation-filters="sRGB">
<feFlood flood-opacity="0" result="BackgroundImageFix"/>
<feBlend mode="normal" in="SourceGraphic" in2="BackgroundImageFix" result="shape"/>
<feGaussianBlur stdDeviation="116" result="effect1_foregroundBlur_10_1056"/>
</filter>
<filter id="filter6_d_10_1056" x="105.77" y="111.455" width="300.46" height="300.057" filterUnits="userSpaceOnUse" color-interpolation-filters="sRGB">
<feFlood flood-opacity="0" result="BackgroundImageFix"/>
<feColorMatrix in="SourceAlpha" type="matrix" values="0 0 0 0 0 0 0 0 0 0 0 0 0 0 0 0 0 0 127 0" result="hardAlpha"/>
<feOffset dy="5.18345"/>
<feGaussianBlur stdDeviation="5.18345"/>
<feComposite in2="hardAlpha" operator="out"/>
<feColorMatrix type="matrix" values="0 0 0 0 0.241667 0 0 0 0 0.241667 0 0 0 0 0.241667 0 0 0 1 0"/>
<feBlend mode="overlay" in2="BackgroundImageFix" result="effect1_dropShadow_10_1056"/>
<feBlend mode="normal" in="SourceGraphic" in2="effect1_dropShadow_10_1056" result="shape"/>
</filter>
<linearGradient id="paint0_linear_10_1056" x1="256" y1="130.608" x2="256" y2="381.991" gradientUnits="userSpaceOnUse">
<stop stop-color="#EAECFF"/>
<stop offset="1" stop-color="#CCEBFF"/>
</linearGradient>
<linearGradient id="paint1_linear_10_1056" x1="256.616" y1="382.667" x2="256.616" y2="131.365" gradientUnits="userSpaceOnUse">
<stop stop-color="#0052CC"/>
<stop offset="1" stop-color="#2684FF"/>
</linearGradient>
<clipPath id="clip0_10_1056">
<rect x="43" y="43" width="426" height="426" rx="112" fill="white"/>
</clipPath>
</defs>
</svg>
