<svg xmlns="http://www.w3.org/2000/svg"  viewBox="0 0 100 100" width="100px" height="100px" baseProfile="basic"><path fill="#c7ede6" d="M87.215,56.71C88.35,54.555,89,52.105,89,49.5c0-6.621-4.159-12.257-10.001-14.478	C78.999,35.015,79,35.008,79,35c0-11.598-9.402-21-21-21c-9.784,0-17.981,6.701-20.313,15.757C36.211,29.272,34.638,29,33,29	c-7.692,0-14.023,5.793-14.89,13.252C12.906,43.353,9,47.969,9,53.5C9,59.851,14.149,65,20.5,65c0.177,0,0.352-0.012,0.526-0.022	C21.022,65.153,21,65.324,21,65.5C21,76.822,30.178,86,41.5,86c6.437,0,12.175-2.972,15.934-7.614C59.612,80.611,62.64,82,66,82	c4.65,0,8.674-2.65,10.666-6.518C77.718,75.817,78.837,76,80,76c6.075,0,11-4.925,11-11C91,61.689,89.53,58.727,87.215,56.71z"/><path fill="#fff" d="M15.405,51H5.5C5.224,51,5,50.776,5,50.5S5.224,50,5.5,50h9.905c0.276,0,0.5,0.224,0.5,0.5 S15.682,51,15.405,51z"/><path fill="#fff" d="M18.5,51h-1c-0.276,0-0.5-0.224-0.5-0.5s0.224-0.5,0.5-0.5h1c0.276,0,0.5,0.224,0.5,0.5 S18.777,51,18.5,51z"/><path fill="#fff" d="M23.491,53H14.5c-0.276,0-0.5-0.224-0.5-0.5s0.224-0.5,0.5-0.5h8.991c0.276,0,0.5,0.224,0.5,0.5 S23.767,53,23.491,53z"/><path fill="#fff" d="M12.5,53h-1c-0.276,0-0.5-0.224-0.5-0.5s0.224-0.5,0.5-0.5h1c0.276,0,0.5,0.224,0.5,0.5 S12.777,53,12.5,53z"/><path fill="#fff" d="M9.5,53h-2C7.224,53,7,52.776,7,52.5S7.224,52,7.5,52h2c0.276,0,0.5,0.224,0.5,0.5S9.777,53,9.5,53z"/><path fill="#fff" d="M15.5,55h-2c-0.276,0-0.5-0.224-0.5-0.5s0.224-0.5,0.5-0.5h2c0.276,0,0.5,0.224,0.5,0.5 S15.776,55,15.5,55z"/><path fill="#fff" d="M18.5,46c-0.177,0-0.823,0-1,0c-0.276,0-0.5,0.224-0.5,0.5c0,0.276,0.224,0.5,0.5,0.5 c0.177,0,0.823,0,1,0c0.276,0,0.5-0.224,0.5-0.5C19,46.224,18.776,46,18.5,46z"/><path fill="#fff" d="M18.5,48c-0.177,0-4.823,0-5,0c-0.276,0-0.5,0.224-0.5,0.5c0,0.276,0.224,0.5,0.5,0.5 c0.177,0,4.823,0,5,0c0.276,0,0.5-0.224,0.5-0.5C19,48.224,18.776,48,18.5,48z"/><path fill="#fff" d="M23.5,50c-0.177,0-2.823,0-3,0c-0.276,0-0.5,0.224-0.5,0.5c0,0.276,0.224,0.5,0.5,0.5 c0.177,0,2.823,0,3,0c0.276,0,0.5-0.224,0.5-0.5C24,50.224,23.776,50,23.5,50z"/><path fill="#fdfcef" d="M44.875,31.5c0,0,3.64,0,6.125,0s4.5-2.015,4.5-4.5c0-2.333-1.782-4.229-4.055-4.455 C51.467,22.364,51.5,22.187,51.5,22c0-2.485-2.015-4.5-4.5-4.5c-1.438,0-2.703,0.686-3.527,1.736 C43.333,16.6,41.171,14.5,38.5,14.5c-2.761,0-5,2.239-5,5c0,0.446,0.077,0.87,0.187,1.282C33.045,20.005,32.086,19.5,31,19.5 c-1.781,0-3.234,1.335-3.455,3.055C27.364,22.533,27.187,22.5,27,22.5c-2.485,0-4.5,2.015-4.5,4.5s2.015,4.5,4.5,4.5s9.5,0,9.5,0 h5.375V32h3V31.5z"/><path fill="#472b29" d="M38.5,14c-3.033,0-5.5,2.467-5.5,5.5c0,0.016,0,0.031,0,0.047C32.398,19.192,31.71,19,31,19 c-1.831,0-3.411,1.261-3.858,3.005C27.095,22.002,27.048,22,27,22c-2.757,0-5,2.243-5,5s2.243,5,5,5h14.875 c0.276,0,0.5-0.224,0.5-0.5s-0.224-0.5-0.5-0.5H27c-2.206,0-4-1.794-4-4s1.794-4,4-4c0.117,0,0.23,0.017,0.343,0.032l0.141,0.019 c0.021,0.003,0.041,0.004,0.062,0.004c0.246,0,0.462-0.185,0.495-0.437C28.232,21.125,29.504,20,31,20 c0.885,0,1.723,0.401,2.301,1.1c0.098,0.118,0.241,0.182,0.386,0.182c0.078,0,0.156-0.018,0.228-0.056 c0.209-0.107,0.314-0.346,0.254-0.573C34.054,20.218,34,19.852,34,19.5c0-2.481,2.019-4.5,4.5-4.5c2.381,0,4.347,1.872,4.474,4.263 c0.011,0.208,0.15,0.387,0.349,0.45c0.05,0.016,0.101,0.024,0.152,0.024c0.15,0,0.296-0.069,0.392-0.192 C44.638,18.563,45.779,18,47,18c2.206,0,4,1.794,4,4c0,0.117-0.017,0.23-0.032,0.343l-0.019,0.141 c-0.016,0.134,0.022,0.268,0.106,0.373c0.084,0.105,0.207,0.172,0.34,0.185C53.451,23.247,55,24.949,55,27c0,2.206-1.794,4-4,4 h-6.125c-0.276,0-0.5,0.224-0.5,0.5s0.224,0.5,0.5,0.5H51c2.757,0,5-2.243,5-5c0-2.397-1.689-4.413-4.003-4.877 C51.999,22.082,52,22.041,52,22c0-2.757-2.243-5-5-5c-1.176,0-2.293,0.416-3.183,1.164C43.219,15.76,41.055,14,38.5,14L38.5,14z"/><path fill="#472b29" d="M37,21c-1.403,0-2.609,0.999-2.913,2.341C33.72,23.119,33.301,23,32.875,23 c-1.202,0-2.198,0.897-2.353,2.068C30.319,25.022,30.126,25,29.937,25c-1.529,0-2.811,1.2-2.918,2.732 C27.01,27.87,27.114,27.99,27.251,28c0.006,0,0.012,0,0.018,0c0.13,0,0.24-0.101,0.249-0.232c0.089-1.271,1.151-2.268,2.419-2.268 c0.229,0,0.47,0.042,0.738,0.127c0.022,0.007,0.045,0.01,0.067,0.01c0.055,0,0.11-0.02,0.156-0.054 C30.962,25.537,31,25.455,31,25.375c0-1.034,0.841-1.875,1.875-1.875c0.447,0,0.885,0.168,1.231,0.473 c0.047,0.041,0.106,0.063,0.165,0.063c0.032,0,0.063-0.006,0.093-0.019c0.088-0.035,0.148-0.117,0.155-0.212 C34.623,22.512,35.712,21.5,37,21.5c0.208,0,0.425,0.034,0.682,0.107c0.023,0.007,0.047,0.01,0.07,0.01 c0.109,0,0.207-0.073,0.239-0.182c0.038-0.133-0.039-0.271-0.172-0.309C37.517,21.04,37.256,21,37,21L37,21z"/><path fill="#472b29" d="M50.883,22.5c-1.326,0-2.508,0.897-2.874,2.182c-0.038,0.133,0.039,0.271,0.172,0.309 C48.205,24.997,48.228,25,48.25,25c0.109,0,0.209-0.072,0.24-0.182C48.795,23.748,49.779,23,50.883,23 c0.117,0,0.23,0.014,0.342,0.029c0.012,0.002,0.023,0.003,0.035,0.003c0.121,0,0.229-0.092,0.246-0.217 c0.019-0.137-0.077-0.263-0.214-0.281C51.158,22.516,51.022,22.5,50.883,22.5L50.883,22.5z"/><path fill="#fff" d="M85.5,46h-10c-0.276,0-0.5-0.224-0.5-0.5s0.224-0.5,0.5-0.5h10c0.276,0,0.5,0.224,0.5,0.5 S85.776,46,85.5,46z"/><path fill="#fff" d="M89.5,46h-2c-0.276,0-0.5-0.224-0.5-0.5s0.224-0.5,0.5-0.5h2c0.276,0,0.5,0.224,0.5,0.5 S89.776,46,89.5,46z"/><path fill="#fff" d="M94.5,48h-10c-0.276,0-0.5-0.224-0.5-0.5s0.224-0.5,0.5-0.5h10c0.276,0,0.5,0.224,0.5,0.5 S94.777,48,94.5,48z"/><path fill="#fff" d="M82.5,48h-1c-0.276,0-0.5-0.224-0.5-0.5s0.224-0.5,0.5-0.5h1c0.276,0,0.5,0.224,0.5,0.5 S82.776,48,82.5,48z"/><path fill="#fff" d="M79.375,48H77.5c-0.276,0-0.5-0.224-0.5-0.5s0.224-0.5,0.5-0.5h1.875c0.276,0,0.5,0.224,0.5,0.5 S79.651,48,79.375,48z"/><path fill="#fff" d="M88.5,44h-5c-0.276,0-0.5-0.224-0.5-0.5s0.224-0.5,0.5-0.5h5c0.276,0,0.5,0.224,0.5,0.5 S88.777,44,88.5,44z"/><path fill="#fff" d="M85.5,50h-2c-0.276,0-0.5-0.224-0.5-0.5s0.224-0.5,0.5-0.5h2c0.276,0,0.5,0.224,0.5,0.5 S85.776,50,85.5,50z"/><path fill="#2d80d3" stroke="#472b29" stroke-linejoin="round" stroke-miterlimit="10" stroke-width="1.4" d="M49.3,49.257H29.7V29.7	h19.6V49.257z"/><path fill="#2d80d3" stroke="#472b29" stroke-linejoin="round" stroke-miterlimit="10" stroke-width="1.4" d="M72.25,49.257H52.7	V29.7h19.55V49.257z"/><path fill="#2d80d3" stroke="#472b29" stroke-linejoin="round" stroke-miterlimit="10" stroke-width="1.4" d="M49.3,72.257H29.7V52.7	h19.6V72.257z"/><path fill="#2d80d3" stroke="#472b29" stroke-linejoin="round" stroke-miterlimit="10" stroke-width="1.4" d="M72.25,72.257H52.7	V52.7h19.55V72.257z"/><g><path fill="#fdfcef" d="M81.5,78.5c0,0,1.567,0,3.5,0s3.5-1.567,3.5-3.5c0-1.781-1.335-3.234-3.055-3.455 C85.473,71.366,85.5,71.187,85.5,71c0-1.933-1.567-3.5-3.5-3.5c-1.032,0-1.95,0.455-2.59,1.165 c-0.384-1.808-1.987-3.165-3.91-3.165c-2.209,0-4,1.791-4,4c0,0.191,0.03,0.374,0.056,0.558C71.128,69.714,70.592,69.5,70,69.5 c-1.228,0-2.245,0.887-2.455,2.055C67.366,71.527,67.187,71.5,67,71.5c-1.933,0-3.5,1.567-3.5,3.5s1.567,3.5,3.5,3.5s7.5,0,7.5,0 V79h7V78.5z"/><path fill="#472b29" d="M83.25,74C83.112,74,83,73.888,83,73.75c0-1.223,0.995-2.218,2.218-2.218 c0.034,0.009,0.737-0.001,1.244,0.136c0.133,0.036,0.212,0.173,0.176,0.306c-0.036,0.134-0.173,0.213-0.306,0.176 c-0.444-0.12-1.1-0.12-1.113-0.118c-0.948,0-1.719,0.771-1.719,1.718C83.5,73.888,83.388,74,83.25,74z"/><circle cx="76.5" cy="78.5" r=".5" fill="#472b29"/><path fill="#472b29" d="M85,79h-3.5c-0.276,0-0.5-0.224-0.5-0.5s0.224-0.5,0.5-0.5H85c1.654,0,3-1.346,3-3 c0-1.496-1.125-2.768-2.618-2.959c-0.134-0.018-0.255-0.088-0.336-0.196s-0.115-0.244-0.094-0.377C84.975,71.314,85,71.16,85,71 c0-1.654-1.346-3-3-3c-0.85,0-1.638,0.355-2.219,1c-0.125,0.139-0.321,0.198-0.5,0.148c-0.182-0.049-0.321-0.195-0.36-0.379 C78.58,67.165,77.141,66,75.5,66c-1.93,0-3.5,1.57-3.5,3.5c0,0.143,0.021,0.28,0.041,0.418c0.029,0.203-0.063,0.438-0.242,0.54 c-0.179,0.102-0.396,0.118-0.556-0.01C70.878,70.155,70.449,70,70,70c-0.966,0-1.792,0.691-1.963,1.644 c-0.048,0.267-0.296,0.446-0.569,0.405C67.314,72.025,67.16,72,67,72c-1.654,0-3,1.346-3,3s1.346,3,3,3h7.5 c0.276,0,0.5,0.224,0.5,0.5S74.776,79,74.5,79H67c-2.206,0-4-1.794-4-4s1.794-4,4-4c0.059,0,0.116,0.002,0.174,0.006 C67.588,69.82,68.711,69,70,69c0.349,0,0.689,0.061,1.011,0.18C71.176,66.847,73.126,65,75.5,65c1.831,0,3.466,1.127,4.153,2.774 C80.333,67.276,81.155,67,82,67c2.206,0,4,1.794,4,4c0,0.048-0.001,0.095-0.004,0.142C87.739,71.59,89,73.169,89,75 C89,77.206,87.206,79,85,79z"/><path fill="#472b29" d="M79.5,78c-0.159,0-0.841,0-1,0c-0.276,0-0.5,0.224-0.5,0.5c0,0.276,0.224,0.5,0.5,0.5 c0.159,0,0.841,0,1,0c0.276,0,0.5-0.224,0.5-0.5C80,78.224,79.776,78,79.5,78z"/></g><path fill="#2d80d3" stroke="#472b29" stroke-linecap="round" stroke-linejoin="round" stroke-miterlimit="10" d="M32.5,40.457v-8h11"/><path fill="#2d80d3" stroke="#472b29" stroke-linecap="round" stroke-linejoin="round" stroke-miterlimit="10" d="M55.5,32.457h5"/><path fill="#2d80d3" stroke="#472b29" stroke-linecap="round" stroke-linejoin="round" stroke-miterlimit="10" d="M62.5,32.457h7v14"/><path fill="#2d80d3" stroke="#472b29" stroke-linecap="round" stroke-linejoin="round" stroke-miterlimit="10" d="M69.5,58.457v-3"/><path fill="#2d80d3" stroke="#472b29" stroke-linecap="round" stroke-linejoin="round" stroke-miterlimit="10" d="M69.5,69.457v-9"/><path fill="#2d80d3" stroke="#472b29" stroke-linecap="round" stroke-linejoin="round" stroke-miterlimit="10" d="M32.5,46.457v-3"/><path fill="#2d80d3" stroke="#472b29" stroke-linecap="round" stroke-linejoin="round" stroke-miterlimit="10" d="M32.5,55.457v14h3"/><line x1="38.5" x2="44.5" y1="69.457" y2="69.457" fill="#2d80d3" stroke="#472b29" stroke-linecap="round" stroke-linejoin="round" stroke-miterlimit="10"/><line x1="55.5" x2="65.5" y1="69.457" y2="69.457" fill="#2d80d3" stroke="#472b29" stroke-linecap="round" stroke-linejoin="round" stroke-miterlimit="10"/></svg>